<svg id="Layer_1" data-name="Layer 1" xmlns="http://www.w3.org/2000/svg" xmlns:xlink="http://www.w3.org/1999/xlink" viewBox="0 0 672.2 198.12"><defs><style>.cls-1{fill:url(#linear-gradient);}.cls-2{fill:url(#linear-gradient-2);}.cls-3{fill:url(#linear-gradient-3);}.cls-4{fill:url(#linear-gradient-4);}.cls-5{fill:url(#linear-gradient-5);}.cls-6{fill:url(#linear-gradient-6);}.cls-7{fill:url(#linear-gradient-7);}.cls-8{fill:url(#linear-gradient-8);}</style><linearGradient id="linear-gradient" x1="17.21" y1="102.44" x2="219.2" y2="102.44" gradientUnits="userSpaceOnUse"><stop offset="0" stop-color="#fff"/><stop offset="0.02" stop-color="#f1f1f1"/><stop offset="0.07" stop-color="#cdcdcd"/><stop offset="0.13" stop-color="#929292"/><stop offset="0.17" stop-color="#676767"/><stop offset="0.33" stop-color="#fff"/><stop offset="0.5" stop-color="#676767"/><stop offset="0.61" stop-color="#cacaca"/><stop offset="0.67" stop-color="#fff"/><stop offset="0.83" stop-color="#676767"/><stop offset="1" stop-color="#fff"/></linearGradient><linearGradient id="linear-gradient-2" x1="57.72" y1="38.01" x2="178.68" y2="161.44" gradientUnits="userSpaceOnUse"><stop offset="0" stop-color="#fff"/><stop offset="0.07" stop-color="#fafafa"/><stop offset="0.16" stop-color="#ededed"/><stop offset="0.25" stop-color="#d6d6d6"/><stop offset="0.34" stop-color="#b6b6b6"/><stop offset="0.43" stop-color="#8d8d8d"/><stop offset="0.51" stop-color="#676767"/><stop offset="0.83" stop-color="#cacaca"/><stop offset="1" stop-color="#fff"/></linearGradient><linearGradient id="linear-gradient-3" x1="228.04" y1="184.68" x2="842.38" y2="230.29" xlink:href="#linear-gradient"/><linearGradient id="linear-gradient-4" x1="230.7" y1="187.3" x2="687.52" y2="216.14" xlink:href="#linear-gradient-2"/><linearGradient id="linear-gradient-5" x1="234.13" y1="100.17" x2="624.79" y2="100.17" gradientUnits="userSpaceOnUse"><stop offset="0"/><stop offset="0.03" stop-color="#0e0e0e"/><stop offset="0.09" stop-color="#323232"/><stop offset="0.17" stop-color="#676767"/><stop offset="0.33"/><stop offset="0.5" stop-color="#676767"/><stop offset="0.66" stop-color="#040404"/><stop offset="0.67"/><stop offset="0.83" stop-color="#676767"/><stop offset="1"/></linearGradient><linearGradient id="linear-gradient-6" x1="430.93" y1="46.6" x2="430.93" y2="156.26" xlink:href="#linear-gradient"/><linearGradient id="linear-gradient-7" x1="247.65" y1="60.4" x2="623.64" y2="153.21" xlink:href="#linear-gradient-2"/><linearGradient id="linear-gradient-8" x1="642.29" y1="137.79" x2="659.21" y2="166.86" gradientUnits="userSpaceOnUse"><stop offset="0" stop-color="#fff"/><stop offset="0.1" stop-color="#fafafa"/><stop offset="0.22" stop-color="#ededed"/><stop offset="0.35" stop-color="#d6d6d6"/><stop offset="0.47" stop-color="#b7b6b6"/><stop offset="0.53" stop-color="#a8a7a7"/><stop offset="0.57" stop-color="#9d9c9c"/><stop offset="0.72" stop-color="#767676"/><stop offset="0.8" stop-color="#676767"/></linearGradient></defs><path class="cls-1" d="M120.73,189.43c-29.48,0-57.92-11.09-78-30.44l-.88-.84,10.66-27.71H97.42l7.64,18.84h16l-41-96.44-8.78-.1L30.8,145.14,29,142.2a73.73,73.73,0,0,1-11.74-39.71c0-23.39,11.19-45.4,31.49-62,19.49-15.92,45.74-25,72-25,42.68,0,80,23.56,95.37,57.49l0,.17c-9.55-14.55-27.56-22.41-45.65-22.41-29.11,0-51.91,22.12-51.91,50.36s22.8,50.36,51.91,50.36c20.48,0,40.18-10.21,48.77-27.95h0C207.32,161.37,166.92,189.43,120.73,189.43Zm49.7-52c-19.59,0-36.15-16.66-36.15-36.39s16.56-36.4,36.15-36.4,36.18,16.67,36.18,36.4S190,137.45,170.43,137.45ZM57.7,117.68,75.09,75l17.26,42.72Z" transform="translate(-17.21 -15.45)"/><path class="cls-2" d="M136.11,101.06A34.33,34.33,0,1,0,170.43,66.5a34.83,34.83,0,0,0-34.32,34.56Zm34.32,52.2c21.83,0,40.18-12,48.77-29.79-11.7,37.3-53.17,64.13-98.47,64.13C91.06,187.6,63.06,176,44,157.67l9.77-25.39H96.18l7.64,18.84h20L81.28,51l-11.2-.12L30.51,141.22a72.24,72.24,0,0,1-11.46-38.73c0-47.91,48.28-85.2,101.68-85.2,41.85,0,80.47,22.75,95.37,55.65-9.54-14.55-26.22-24.08-45.67-24.08-30,0-53.75,22.89-53.75,52.2s23.73,52.2,53.75,52.2Zm-110-37.42h29.2l-14.54-36Z" transform="translate(-17.21 -15.45)"/><path class="cls-3" d="M230.76,182.25h6.17V213h-6.17ZM255,189.79a8.41,8.41,0,0,0-7.44,3.61h-.1v-3.08h-5.59V213h5.91V201.91c0-2.91.92-7.54,5.19-7.54,3.8,0,3.83,3.75,3.83,6.53V213h5.91V198.7C262.75,193.57,260.42,189.79,255,189.79Zm25.83,0a8.41,8.41,0,0,0-7.43,3.61h-.11v-3.08h-5.6V213h5.91V201.91c0-2.91.93-7.54,5.2-7.54,3.8,0,3.83,3.75,3.83,6.53V213h5.91V198.7C288.58,193.57,286.25,189.79,280.87,189.79Zm34.11,12c0,6.52-4.34,11.73-11.9,11.73s-11.84-5.21-11.84-11.73c0-7.5,5.14-12,11.84-12S315,194.33,315,201.83Zm-6.16-.71c0-3.48-1.87-6.75-5.74-6.75s-5.7,3.36-5.7,6.75c0,3.74,1.22,7.85,5.7,7.85S308.82,204.91,308.82,201.12Zm18.6,5.74h-.08l-5.65-16.54h-6.34l8.43,22.7h6.63l8.37-22.7h-5.9ZM360.05,208c0,1.74.11,3.32.25,5.08h-5.2a26.54,26.54,0,0,1-.24-3.41h-.11a8.13,8.13,0,0,1-7,3.95c-4,0-7.93-2.44-7.93-6.76a6.64,6.64,0,0,1,3.87-6.47,17.88,17.88,0,0,1,7.62-1.34h3.26c0-3.64-1.63-4.9-5.1-4.9a12,12,0,0,0-7,2.48l-.16-5.07a20.2,20.2,0,0,1,7.89-1.72c6.9,0,9.77,2.87,9.77,9.57v2.9C360,204.55,360,206.27,360.05,208Zm-5.48-5.42H352c-2.62,0-6.56.45-6.56,3.94,0,1.92,1.62,2.76,3.75,2.76a5,5,0,0,0,4.14-2A7.52,7.52,0,0,0,354.57,202.53ZM375.29,209c-2.25,0-2.78-1.81-2.78-3.76V194.64h5.24v-4.32h-5.24v-6.44l-5.88,1.89v4.55h-4.39v4.32h4.39v11.54c0,4.5,2.54,7.38,7.15,7.38a15.09,15.09,0,0,0,4.37-.54l-.17-4.67A5.49,5.49,0,0,1,375.29,209Zm7.32,4.05h5.91v-22.7h-5.91Zm0-26.84h5.91v-5.66h-5.91Zm33.33,15.65c0,6.52-4.36,11.73-11.9,11.73s-11.86-5.21-11.86-11.73c0-7.5,5.16-12,11.86-12S415.94,194.33,415.94,201.83Zm-6.18-.71c0-3.48-1.85-6.75-5.72-6.75s-5.7,3.36-5.7,6.75c0,3.74,1.2,7.85,5.7,7.85S409.76,204.91,409.76,201.12Zm22.83-11.33a8.45,8.45,0,0,0-7.43,3.61h-.09v-3.08h-5.59V213h5.89V201.91c0-2.91.93-7.54,5.2-7.54,3.79,0,3.84,3.75,3.84,6.53V213h5.91V198.7C440.32,193.57,438,189.79,432.59,189.79Zm38.74,0a8.4,8.4,0,0,0-7.11,3.61h-.11V179.94H458.2V213h5.91V201.91c0-2.91.94-7.54,5.2-7.54,3.8,0,3.85,3.75,3.85,6.53V213h5.9V198.68C479.06,193.57,476.73,189.79,471.33,189.79ZM502.82,208c0,1.74.13,3.32.26,5.08h-5.19a25.59,25.59,0,0,1-.27-3.41h-.09a8.13,8.13,0,0,1-7,3.95c-4,0-7.94-2.44-7.94-6.76a6.65,6.65,0,0,1,3.88-6.47,17.91,17.91,0,0,1,7.64-1.34h3.26c0-3.64-1.65-4.9-5.12-4.9a12.11,12.11,0,0,0-7,2.48l-.15-5.07a20.19,20.19,0,0,1,7.87-1.72c6.94,0,9.81,2.87,9.81,9.57v2.9C502.75,204.55,502.78,206.27,502.82,208Zm-5.45-5.42h-2.56c-2.65,0-6.59.45-6.59,3.94,0,1.92,1.65,2.76,3.75,2.76a5,5,0,0,0,4.16-2A7.59,7.59,0,0,0,497.37,202.53Zm15.69-5.9c0-1.94,1.9-2.53,3.49-2.53a14.26,14.26,0,0,1,5.28,1l.39-4.47a28.14,28.14,0,0,0-6.43-.83c-4.64,0-8.91,2.16-8.91,7.06,0,8.19,10.27,5.15,10.27,9.62,0,2.19-2.39,2.76-3.87,2.76a13,13,0,0,1-5.84-1.5l-.34,4.86a27,27,0,0,0,6.69,1c4.81,0,9.53-2.14,9.53-7.43C523.32,197.94,513.06,200.24,513.06,196.63ZM558.5,208c0,1.74.13,3.32.27,5.08h-5.21a33.86,33.86,0,0,1-.25-3.41h-.1a8.14,8.14,0,0,1-7,3.95c-4,0-7.92-2.44-7.92-6.76a6.63,6.63,0,0,1,3.88-6.47,17.83,17.83,0,0,1,7.61-1.34H553c0-3.64-1.63-4.9-5.1-4.9a11.93,11.93,0,0,0-7,2.48l-.17-5.07a20.24,20.24,0,0,1,7.89-1.72c6.92,0,9.78,2.87,9.78,9.57v2.9C558.41,204.55,558.46,206.27,558.5,208ZM553,202.53h-2.56c-2.63,0-6.56.45-6.56,3.94,0,1.92,1.63,2.76,3.74,2.76a5,5,0,0,0,4.15-2A7.59,7.59,0,0,0,553,202.53Zm36.15-12.74a8.44,8.44,0,0,0-7.44,3.61h-.1v-3.08h-5.59V213H582V201.91c0-2.91.94-7.54,5.21-7.54,3.77,0,3.82,3.75,3.82,6.53V213h5.92V198.7C596.9,193.57,594.57,189.79,589.18,189.79ZM619.78,208c.05,1.74.14,3.32.26,5.08h-5.2a31.52,31.52,0,0,1-.26-3.41h-.09a8.14,8.14,0,0,1-7,3.95c-4,0-7.94-2.44-7.94-6.76a6.65,6.65,0,0,1,3.86-6.47A18,18,0,0,1,611,199h3.27c0-3.64-1.64-4.9-5.12-4.9a11.9,11.9,0,0,0-7,2.48l-.17-5.07a20.22,20.22,0,0,1,7.87-1.72c6.94,0,9.79,2.87,9.79,9.57l0,2.9C619.7,204.55,619.73,206.27,619.78,208Zm-5.47-5.42h-2.57c-2.63,0-6.55.45-6.55,3.94,0,1.92,1.62,2.76,3.73,2.76a5,5,0,0,0,4.16-2A7.52,7.52,0,0,0,614.31,202.53Zm36.16-12.74a7.76,7.76,0,0,0-7.1,4c-1.3-2.81-3.52-4-6.71-4a8,8,0,0,0-6.75,3.71h-.08v-3.18h-5.51V213h5.91V202c0-2.95.47-7.63,4.41-7.63,3.39,0,3.39,3,3.39,5.11V213h5.91V202c0-2.95.48-7.63,4.4-7.63,3.4,0,3.4,3,3.4,5.11V213h5.91V198.7C657.65,193.62,656.07,189.79,650.47,189.79Zm31,13.38H665.8c.26,3.65,2.82,5.72,6.47,5.72a15.31,15.31,0,0,0,7.56-2.29v4.81a15.68,15.68,0,0,1-7.82,1.82c-7.49,0-11.84-4.34-11.84-11.78,0-6.57,3.46-12,10.52-12C679.12,189.45,681.5,195.23,681.5,203.17Zm-5.66-4.07c-.15-2.86-1.49-5.33-4.79-5.33s-5,2.3-5.25,5.33Zm7.42,7.76V213h6.15v-6.16Z" transform="translate(-17.21 -15.45)"/><path class="cls-4" d="M607.49,212.65c-3.49,0-7-2-7-5.84a5.74,5.74,0,0,1,3.35-5.65,16.7,16.7,0,0,1,7.22-1.24h4.18V199c0-4-1.86-5.82-6-5.82a12.49,12.49,0,0,0-6.14,1.73l-.09-2.8a19.39,19.39,0,0,1,6.93-1.4c6.39,0,8.87,2.42,8.87,8.65l0,2.91c0,2.22,0,4,.07,5.71,0,1.45.12,2.83.2,4.13h-3.41c-.07-.61-.09-1.24-.11-1.75,0-.32,0-.6,0-.82l-.06-.84H614l-.34.48A7.28,7.28,0,0,1,607.49,212.65Zm4.25-11c-6.17,0-7.47,2.64-7.47,4.86s1.78,3.68,4.65,3.68a6,6,0,0,0,4.9-2.4,8.44,8.44,0,0,0,1.4-5.22v-.92Zm-65.55,11c-3.48,0-7-2-7-5.84a5.75,5.75,0,0,1,3.36-5.65,16.69,16.69,0,0,1,7.21-1.24H554V199c0-4-1.86-5.82-6-5.82a12.43,12.43,0,0,0-6.16,1.73l-.1-2.81a19.66,19.66,0,0,1,7-1.39c6.38,0,8.86,2.42,8.86,8.65v2.9c0,1.92,0,3.45.07,4.88l0,.83c0,1.37.1,2.68.2,4.14h-3.42c-.05-.62-.08-1.27-.1-1.79,0-.3,0-.56,0-.77l-.06-.85h-1.41l-.36.48A7.18,7.18,0,0,1,546.19,212.65Zm4.28-11c-6.18,0-7.48,2.64-7.48,4.86s1.78,3.68,4.66,3.68a5.94,5.94,0,0,0,4.88-2.4,8.61,8.61,0,0,0,1.42-5.22v-.92Zm-36.68,11a24.43,24.43,0,0,1-5.72-.77l.19-2.77a13,13,0,0,0,5,1c2.38,0,4.79-1.14,4.79-3.68s-2.47-3.31-4.65-3.95c-2.89-.85-5.63-1.65-5.63-5.67,0-4.52,4.13-6.14,8-6.14a24.77,24.77,0,0,1,5.45.64l-.23,2.5a14.2,14.2,0,0,0-4.46-.67c-2.68,0-4.41,1.36-4.41,3.45s2.16,2.78,4.25,3.42c3,.91,6,1.84,6,6.09C522.4,210.94,518,212.65,513.79,212.65Zm-23.26,0c-3.49,0-7-2-7-5.84a5.76,5.76,0,0,1,3.38-5.65,16.66,16.66,0,0,1,7.23-1.24h4.17V199c0-4-1.91-5.82-6-5.82a12.55,12.55,0,0,0-6.16,1.73L486,192.1a19.42,19.42,0,0,1,6.93-1.39c6.4,0,8.89,2.42,8.89,8.65v2.9c0,2.3,0,4,.07,5.72,0,1.39.1,2.7.2,4.13h-3.42c-.07-.7-.1-1.44-.12-2l-.06-1.43h-1.42l-.35.48A7.28,7.28,0,0,1,490.53,212.65Zm4.28-11c-6.21,0-7.51,2.64-7.51,4.86s1.82,3.68,4.67,3.68a5.9,5.9,0,0,0,4.89-2.4,8.53,8.53,0,0,0,1.42-5.22v-.92Zm-147.06,11c-3.49,0-7-2-7-5.84a5.75,5.75,0,0,1,3.36-5.65,16.62,16.62,0,0,1,7.21-1.24h4.18V199c0-4-1.86-5.82-6-5.82a12.42,12.42,0,0,0-6.15,1.73l-.09-2.81a19.57,19.57,0,0,1,6.95-1.39c6.37,0,8.85,2.42,8.85,8.65v2.9c0,1.8,0,3.25.07,4.6l0,1.12c0,1.48.09,2.8.18,4.13H355.9c-.07-.72-.1-1.49-.11-2l-.05-1.37h-1.43l-.36.48A7.25,7.25,0,0,1,347.75,212.65Zm4.26-11c-6.18,0-7.47,2.64-7.47,4.86s1.78,3.68,4.66,3.68a6,6,0,0,0,4.87-2.4,8.53,8.53,0,0,0,1.42-5.22v-.92Zm52,11c-6.55,0-11-4.34-11-10.81,0-6.65,4.4-11.12,11-11.12s11,4.47,11,11.12C415,208.3,410.61,212.64,404,212.64Zm0-19.18c-4.55,0-6.62,4-6.62,7.66,0,5.58,2.41,8.77,6.62,8.77s6.64-3.19,6.64-8.77C410.68,197.31,408.63,193.46,404,193.46Zm-30.26,19.18c-4,0-6.23-2.36-6.23-6.46V193.72h-4.39v-2.49h4.39v-4.79l4-1.3v6.09h5.24v2.49h-5.24v11.49c0,4.07,2.32,4.68,3.7,4.68a7.62,7.62,0,0,0,1.82-.22l.1,2.65A15.88,15.88,0,0,1,373.78,212.64Zm-70.7,0c-6.54,0-10.92-4.34-10.92-10.81,0-6.65,4.38-11.12,10.92-11.12s11,4.47,11,11.12C314.06,208.3,309.64,212.64,303.08,212.64Zm0-19.18c-4.55,0-6.62,4-6.62,7.66,0,5.58,2.44,8.77,6.62,8.77s6.66-3.19,6.66-8.77C309.74,197.43,307.65,193.46,303.08,193.46ZM672,212.31c-6.94,0-10.92-4-10.92-10.86,0-5.36,2.52-11.08,9.6-11.08,6.6,0,9.67,3.67,9.88,11.88H664.81l.07,1c.29,4.06,3.12,6.58,7.39,6.58a15,15,0,0,0,6.64-1.69v2.73A15,15,0,0,1,672,212.31Zm-1-19.46c-3.53,0-5.84,2.31-6.17,6.17l-.09,1h12l0-1C676.55,195.17,674.42,192.85,671.05,192.85Zm13.13,19.26v-4.33h4.32v4.33Zm-31.52,0V199.48c0-2.1,0-6-4.32-6-2.42,0-5.32,1.48-5.32,8.54v10.11H639V199.48c0-2.1,0-6-4.31-6-2.43,0-5.33,1.48-5.33,8.54v10.11h-4.07V191.23h3.67v3.19h1.41l.35-.41a7.06,7.06,0,0,1,6-3.3c3,0,4.77,1.07,5.88,3.47l.81,1.74.85-1.71a6.87,6.87,0,0,1,6.27-3.5c4.33,0,6.26,2.46,6.26,8v13.42Zm-60.76,0V200.9c0-2.6,0-7.44-4.74-7.44-4.52,0-6.13,4.36-6.13,8.45v10.2H577V191.23h3.75v3.09h1.4l.37-.39a7.5,7.5,0,0,1,6.69-3.22c5.92,0,6.8,5,6.8,8v13.42Zm-117.82,0V200.9c0-2.6,0-7.44-4.77-7.44-4.51,0-6.12,4.36-6.12,8.45v10.2h-4.07V180.86h4.07v13.46h1.41l.38-.4a7.47,7.47,0,0,1,6.35-3.21c5.93,0,6.82,5,6.82,8v13.43Zm-38.75,0V200.9c0-2.6,0-7.44-4.76-7.44-4.51,0-6.11,4.36-6.11,8.45v10.2H420.4V191.23h3.76v3.09h1.39l.36-.39a7.51,7.51,0,0,1,6.68-3.22c5.93,0,6.81,5,6.81,8v13.42Zm-51.81,0V191.23h4.08v20.88Zm-59.1,0-7.75-20.88H321l5.65,16.55H328l.28-.64,5.26-15.91h3.92l-7.7,20.88Zm-40.84,0V200.9c0-2.6,0-7.44-4.74-7.44-4.51,0-6.12,4.36-6.12,8.45v10.2h-4.07V191.23h3.76v3.09h1.39l.39-.39a7.49,7.49,0,0,1,6.68-3.22c5.91,0,6.79,5,6.79,8v13.42Zm-25.82,0V200.9c0-2.6,0-7.44-4.75-7.44-4.51,0-6.11,4.36-6.11,8.45v10.2h-4.08V191.23h3.76v3.09H248l.37-.39a7.5,7.5,0,0,1,6.69-3.22c5.91,0,6.79,5,6.79,8v13.42Zm-26.08,0V183.17H236v28.94Zm151.84-26.85v-3.82h4.08v3.82Z" transform="translate(-17.21 -15.45)"/><path class="cls-5" d="M460.08,98.43l-.11,57.1H441.84l-.23-57.93c0-8.35-8.82-8.58-8.82-8.58h-7.86s-1.08.23-2.37.36c-11.46,2.5-15,11.32-15.16,21.34l.26,44.81H389.28V97.72c-.1-8.47-8.93-8.7-8.93-8.7h-8s-1.08.23-2.39.36c-11.43,2.5-15,11.32-14.91,21.34v44.81H336.83V70.78h18.23V78.3c5.37-6.44,13.25-7.76,17.17-7.76h6.68c8.12,0,15.25,2.63,22.77,9.42,7.64-6.67,14.43-9.42,23.13-9.42h6.66C448.06,70.54,460,81.16,460.08,98.43Zm141.6-27.89H573.9v-17L555.55,42.42V155.53H573.9l-.11-66.63h28.26a10.86,10.86,0,0,1,5.47,1.33c2.62,1.19,4.54,4,4.54,8.81v56.49h18.23l-.11-57.2C630.29,80.93,618.25,70.54,601.68,70.54ZM540.55,88.92l-.13-18.38h-10.6V52.68L512.65,42.31h-.71l-.12,46.61v36.69c.12,14.91,6.67,26.22,20.14,29.33a23.88,23.88,0,0,0,4.54.59h3.92l-.11-18.35H537.8c-8,0-7.86-9.41-7.86-9.41V88.92Zm-63.78,66.61H494.9v-85H476.77Zm18-102.85L477.6,42.31h-.83V61.5h18ZM255.31,76.5c0-6.55,6.19-14.76,22.89-14.76,10.49,0,19.56,3.33,29.44,13l14.88-13.35c-10.72-10.85-25.25-16.56-43.38-16.56-24.79,0-45,13.35-45,32.77,0,44.21,70.21,21,70.21,45.17,0,10.36-10.73,16.09-26,16.21-12.64,0-24.07-6.07-32.3-14.66L230.76,138a65,65,0,0,0,46.73,20c25,0,48-13.58,48-36.36C325.51,76.5,255.31,100.94,255.31,76.5Z" transform="translate(-17.21 -15.45)"/><path class="cls-6" d="M277.49,156.2a63.23,63.23,0,0,1-44.07-18.11l12.52-11.25c9.11,8.89,20.81,14,32.38,14,17.17-.13,27.82-7.05,27.82-18,0-11.9-14-13.79-28.87-15.8-19.38-2.61-41.33-5.57-41.33-29.38,0-17.64,18.57-30.93,43.2-30.93,16.67,0,30.35,4.93,40.7,14.66l-12.16,10.9c-9.15-8.5-18.31-12.31-29.48-12.31-19.52,0-24.73,10.44-24.73,16.6,0,12,14,13.73,28.75,15.58,19.43,2.43,41.46,5.19,41.46,29.59C323.68,144.34,300.44,156.2,277.49,156.2Zm336.41-2.51V99c0-5-2-8.81-5.54-10.45a12.78,12.78,0,0,0-6.31-1.52H572l.11,66.62H557.39v-108l14.68,8.86V72.38h29.61c8,0,15,2.62,19.77,7.38,4.56,4.58,6.94,11,6.89,18.55l.11,55.38Zm-77.4,0a22.68,22.68,0,0,1-4.16-.54c-11.92-2.76-18.56-12.54-18.68-27.55V88.92l.11-43.79L528,53.72V72.38H538.6l.1,14.7H528.1v40.69c0,.19,0,5.42,3.2,8.69a8.77,8.77,0,0,0,6.5,2.56h.68l.09,14.67Zm-57.89,0V72.38h14.45v81.31Zm-34.94,0-.22-56.09c0-8-6.95-10.32-10.62-10.41h-8.09l-.19,0s-1,.21-2.17.33h-.11l-.1,0C411.33,90,405.74,97.73,405.56,110.7l.25,43H391.12v-56c-.1-8.12-7.06-10.44-10.72-10.53h-8.23l-.19,0s-1,.21-2.19.32l-.11,0-.1,0C358.76,90,353.11,98,353.23,110.74v43H338.67V72.62h14.55V83.37l3.25-3.89c5.64-6.76,14.12-7.1,15.76-7.1h6.68c8,0,14.69,2.76,21.53,8.94l1.21,1.1,1.23-1.07c7.3-6.37,13.65-9,21.93-9h6.66c16.16,0,26.67,10.23,26.78,26.07l-.11,55.24Zm34.94-94V45.06l14.32,8.66v5.94Z" transform="translate(-17.21 -15.45)"/><path class="cls-7" d="M277.49,154.36a61.58,61.58,0,0,1-41.36-16.23l9.78-8.79c9.25,8.47,21,13.29,32.41,13.29,18.3-.13,29.66-7.75,29.66-19.87,0-13.5-15.49-15.59-30.46-17.62-19.54-2.63-39.75-5.36-39.75-27.56,0-16.59,17.79-29.09,41.37-29.09,15.38,0,28.14,4.31,37.95,12.82l-9.41,8.43c-9.11-8.06-18.27-11.67-29.48-11.67-21,0-26.56,11.58-26.56,18.43,0,13.6,15.43,15.53,30.35,17.4,19.59,2.45,39.85,5,39.85,27.77C321.84,143.13,299.53,154.36,277.49,154.36Zm338.25-2.51V99c0-5.72-2.39-10.11-6.54-12.08a14.52,14.52,0,0,0-7.15-1.73H570.11l.11,66.62h-11V48.93l11,6.65V74.22h31.45c7.53,0,14.09,2.43,18.47,6.84,4.2,4.23,6.4,10.19,6.35,17.24l.11,53.55Zm-79.24,0a21.51,21.51,0,0,1-3.78-.5c-11-2.54-17.11-11.69-17.22-25.76V88.92l.1-40.54,10.55,6.38V74.22h10.62l.08,11H526.26v42.53c0,.6,0,6.24,3.74,10a10.33,10.33,0,0,0,6.66,3.05l.06,11Zm-56.05,0V74.22h10.77v77.63Zm-34.94,0-.23-54.26c0-9.42-8.11-12.13-12.4-12.24h-8.33l-.38.08c-.09,0-1,.2-2,.3h-.1l-.21,0c-11.73,2.56-18,11.16-18.15,24.9l.23,41.18H393V97.72c-.12-9.54-8.24-12.26-12.51-12.37H372l-.38.08a20,20,0,0,1-2,.3h-.11l-.21,0c-11.71,2.56-18,11.42-17.9,25v41.1H340.51V74.46h10.88v14l6.49-7.78c5.11-6.13,12.85-6.44,14.35-6.44h6.68c7.56,0,13.82,2.61,20.3,8.47l2.42,2.19,2.46-2.15c6.93-6,12.93-8.51,20.72-8.51h6.66c15,0,24.84,9.51,24.94,24.24l-.11,53.39Zm34.94-94v-9.5l10.64,6.44v3.06Z" transform="translate(-17.21 -15.45)"/><path class="cls-8" d="M644,140.87h2.67c.55,0,1.07,0,1.58.09a4,4,0,0,1,1.35.42,2.29,2.29,0,0,1,1,.9,2.89,2.89,0,0,1,.36,1.55,2.3,2.3,0,0,1-.17.93,2.46,2.46,0,0,1-.47.74,2.53,2.53,0,0,1-.73.53,2.62,2.62,0,0,1-.88.3v0a1.59,1.59,0,0,1,.58.36,3.39,3.39,0,0,1,.48.73l2.06,4.35H650L648.36,148a2.36,2.36,0,0,0-.38-.62,1.28,1.28,0,0,0-.4-.32,1.3,1.3,0,0,0-.48-.11l-.57,0h-.94v4.85H644Zm1.56,4.7h1.32a2.78,2.78,0,0,0,1.75-.46,1.54,1.54,0,0,0,.07-2.43,2.71,2.71,0,0,0-1.65-.43h-1.49Zm10.86.77a9.19,9.19,0,1,1-9.19-9.19A9.18,9.18,0,0,1,656.45,146.34Zm-1.37,0a7.82,7.82,0,1,0-7.82,7.82A7.83,7.83,0,0,0,655.08,146.34Z" transform="translate(-17.21 -15.45)"/></svg>