<svg id="_26-02-2014" data-name="26-02-2014" xmlns="http://www.w3.org/2000/svg" viewBox="0 0 491.82 144"><defs><style>.cls-1{fill:#fff;}</style></defs><path class="cls-1" d="M85.88,61.46a25.19,25.19,0,1,0,25.18-25.35A25.57,25.57,0,0,0,85.88,61.46Zm25.18,38.3c16,0,29.48-8.83,35.78-21.85-8.58,27.36-39,47-72.25,47-21.77,0-42.31-8.48-56.3-22l7.17-18.62H56.59l5.6,13.82H76.87L45.65,24.74l-8.22-.09L8.4,90.93A53,53,0,0,1,0,62.51C0,27.36,35.42,0,74.59,0c30.71,0,59,16.7,70,40.83a39.64,39.64,0,0,0-33.5-17.66C89,23.17,71.63,40,71.63,61.46s17.4,38.3,39.43,38.3ZM30.36,72.31H51.77L41.11,45.9Z"/><path class="cls-1" d="M155.31,121h4.53V143.6h-4.53Zm17.82,5.53a6.19,6.19,0,0,0-5.46,2.65h-.07v-2.27h-4.1V143.6h4.33v-8.15c0-2.13.68-5.53,3.81-5.53,2.79,0,2.81,2.75,2.81,4.79v8.89h4.34V133.09C178.79,129.33,177.08,126.56,173.13,126.56Zm19,0a6.17,6.17,0,0,0-5.45,2.65h-.08v-2.27h-4.11V143.6h4.34v-8.15c0-2.13.68-5.53,3.81-5.53,2.79,0,2.81,2.75,2.81,4.79v8.89h4.34V133.09C197.74,129.33,196,126.56,192.08,126.56Zm25,8.83c0,4.78-3.19,8.6-8.74,8.6s-8.68-3.82-8.68-8.6c0-5.51,3.77-8.83,8.68-8.83S217.11,129.88,217.11,135.39Zm-4.52-.51c0-2.57-1.37-5-4.22-5s-4.17,2.46-4.17,5c0,2.73.88,5.75,4.17,5.75S212.59,137.65,212.59,134.88Zm13.64,4.19h0L222,126.94h-4.65l6.18,16.66h4.87l6.14-16.66h-4.33Zm23.94.81c0,1.28.08,2.43.19,3.73h-3.81a17.07,17.07,0,0,1-.19-2.51h-.07a6,6,0,0,1-5.14,2.9c-3,0-5.82-1.79-5.82-5a4.89,4.89,0,0,1,2.84-4.75,13.18,13.18,0,0,1,5.59-1h2.4c0-2.67-1.2-3.6-3.75-3.6a8.83,8.83,0,0,0-5.15,1.82l-.12-3.72a14.77,14.77,0,0,1,5.79-1.26c5.07,0,7.17,2.1,7.17,7v2.13C250.1,137.39,250.14,138.65,250.17,139.88Zm-4-4h-1.89c-1.92,0-4.8.33-4.8,2.88,0,1.42,1.18,2,2.74,2a3.68,3.68,0,0,0,3-1.49A5.52,5.52,0,0,0,246.16,135.91Zm15.19,4.72c-1.65,0-2-1.33-2-2.76v-7.76h3.84v-3.17h-3.84v-4.71L255,123.61v3.33h-3.22v3.17H255v8.47c0,3.3,1.87,5.41,5.24,5.41a11.26,11.26,0,0,0,3.21-.39l-.12-3.43A4,4,0,0,1,261.35,140.63Zm5.37,3h4.34V126.94h-4.34Zm0-19.69h4.34v-4.14h-4.34Zm24.46,11.48c0,4.78-3.2,8.6-8.74,8.6s-8.7-3.82-8.7-8.6c0-5.51,3.79-8.83,8.7-8.83S291.18,129.88,291.18,135.39Zm-4.53-.51c0-2.57-1.36-5-4.21-5s-4.17,2.46-4.17,5c0,2.73.87,5.75,4.17,5.75S286.65,137.65,286.65,134.88Zm16.75-8.32a6.21,6.21,0,0,0-5.46,2.65h-.06v-2.27h-4.1V143.6h4.32v-8.15c0-2.13.68-5.53,3.81-5.53,2.78,0,2.82,2.75,2.82,4.79v8.89h4.33V133.09C309.06,129.33,307.35,126.56,303.4,126.56Zm28.42,0a6.15,6.15,0,0,0-5.22,2.65h-.08v-9.87h-4.34V143.6h4.34v-8.15c0-2.13.68-5.53,3.82-5.53,2.78,0,2.82,2.75,2.82,4.79v8.89h4.33V133.08C337.49,129.33,335.78,126.56,331.82,126.56Zm23.1,13.32c0,1.28.09,2.43.19,3.73H351.3a17.07,17.07,0,0,1-.19-2.51H351a6,6,0,0,1-5.14,2.9c-2.95,0-5.82-1.79-5.82-5a4.89,4.89,0,0,1,2.85-4.75,13.15,13.15,0,0,1,5.6-1h2.39c0-2.67-1.21-3.6-3.76-3.6a8.88,8.88,0,0,0-5.15,1.82l-.11-3.72a14.75,14.75,0,0,1,5.77-1.26c5.09,0,7.2,2.1,7.2,7v2.13C354.87,137.39,354.88,138.65,354.92,139.88Zm-4-4H349c-1.94,0-4.83.33-4.83,2.88,0,1.42,1.21,2,2.75,2a3.67,3.67,0,0,0,3.05-1.49A5.58,5.58,0,0,0,350.92,135.91Zm11.51-4.33c0-1.43,1.39-1.86,2.56-1.86a10.55,10.55,0,0,1,3.88.73l.28-3.28a20.55,20.55,0,0,0-4.72-.61c-3.4,0-6.53,1.59-6.53,5.18,0,6,7.53,3.78,7.53,7,0,1.61-1.75,2-2.84,2a9.55,9.55,0,0,1-4.28-1.1l-.25,3.56A19.89,19.89,0,0,0,363,144c3.53,0,7-1.57,7-5.45C370,132.54,362.43,134.23,362.43,131.58Zm33.34,8.3c0,1.28.1,2.43.2,3.73h-3.83a22.22,22.22,0,0,1-.18-2.51h-.07a6,6,0,0,1-5.15,2.9c-2.94,0-5.81-1.79-5.81-5a4.89,4.89,0,0,1,2.85-4.75,13.14,13.14,0,0,1,5.58-1h2.4c0-2.67-1.2-3.6-3.75-3.6a8.81,8.81,0,0,0-5.15,1.82l-.12-3.72a14.81,14.81,0,0,1,5.79-1.26c5.07,0,7.17,2.1,7.17,7v2.13C395.7,137.39,395.74,138.65,395.77,139.88Zm-4-4h-1.88c-1.94,0-4.82.33-4.82,2.88,0,1.42,1.21,2,2.75,2a3.66,3.66,0,0,0,3-1.49A5.52,5.52,0,0,0,391.76,135.91Zm26.52-9.35a6.18,6.18,0,0,0-5.46,2.65h-.08v-2.27h-4.1V143.6H413v-8.15c0-2.13.69-5.53,3.83-5.53,2.76,0,2.8,2.75,2.8,4.79v8.89H424V133.09C424,129.33,422.23,126.56,418.28,126.56Zm22.45,13.32c0,1.28.1,2.43.19,3.73h-3.81a23,23,0,0,1-.2-2.51h-.06a6,6,0,0,1-5.14,2.9c-2.95,0-5.82-1.79-5.82-5a4.9,4.9,0,0,1,2.83-4.75,13.23,13.23,0,0,1,5.6-1h2.39c0-2.67-1.2-3.6-3.75-3.6a8.8,8.8,0,0,0-5.14,1.82l-.12-3.72a14.75,14.75,0,0,1,5.77-1.26c5.09,0,7.19,2.1,7.19,7v2.13C440.67,137.39,440.69,138.65,440.73,139.88Zm-4-4h-1.88c-1.93,0-4.81.33-4.81,2.88,0,1.42,1.2,2,2.74,2a3.69,3.69,0,0,0,3.06-1.49A5.57,5.57,0,0,0,436.71,135.91Zm26.53-9.35A5.72,5.72,0,0,0,458,129.5a4.88,4.88,0,0,0-4.92-2.94,5.87,5.87,0,0,0-4.95,2.72h-.06v-2.34h-4V143.6h4.34v-8.08c0-2.17.34-5.6,3.23-5.6,2.49,0,2.49,2.2,2.49,3.75v9.93h4.33v-8.08c0-2.17.36-5.6,3.24-5.6,2.49,0,2.49,2.2,2.49,3.75v9.93h4.33V133.09C468.51,129.37,467.35,126.56,463.24,126.56ZM486,136.37H474.49c.19,2.68,2.07,4.21,4.75,4.21a11.19,11.19,0,0,0,5.54-1.69v3.52a11.38,11.38,0,0,1-5.73,1.34c-5.49,0-8.69-3.17-8.69-8.63,0-4.82,2.54-8.81,7.72-8.81C484.26,126.31,486,130.55,486,136.37Zm-4.15-3c-.11-2.1-1.1-3.91-3.52-3.91s-3.66,1.68-3.85,3.91Zm5.44,5.68v4.53h4.52v-4.53Z"/><path class="cls-1" d="M323.56,59.54l-.08,41.88H310.19L310,58.93c0-6.13-6.47-6.3-6.47-6.3h-5.77s-.79.17-1.74.27c-8.41,1.83-11,8.3-11.12,15.65l.19,32.87H271.62V59c-.08-6.21-6.56-6.38-6.56-6.38H259.2s-.79.17-1.75.27c-8.39,1.83-11,8.3-10.93,15.65v32.87H233.14V39.25h13.38v5.51a16.83,16.83,0,0,1,12.59-5.69H264c6,0,11.19,1.93,16.71,6.92,5.6-4.9,10.59-6.92,17-6.92h4.89C314.74,39.07,323.48,46.86,323.56,59.54ZM427.45,39.07H407.07V26.58l-13.46-8.14v83h13.46L407,52.54h20.73a7.89,7.89,0,0,1,4,1c1.93.87,3.34,3,3.34,6.46v41.44h13.37l-.08-42C448.44,46.69,439.61,39.07,427.45,39.07ZM382.6,52.55l-.1-13.48h-7.77V26l-12.6-7.6h-.52l-.09,34.18V79.48c.09,10.94,4.9,19.23,14.78,21.51a17.62,17.62,0,0,0,3.33.43h2.87L382.42,88h-1.84c-5.85,0-5.77-6.91-5.77-6.91V52.55Zm-46.79,48.87h13.3V39.07h-13.3ZM349,26l-12.59-7.6h-.61V32.44H349ZM173.33,43.45c0-4.81,4.54-10.83,16.79-10.83,7.7,0,14.35,2.44,21.6,9.52l10.92-9.79c-7.87-8-18.53-12.15-31.83-12.15-18.18,0-33,9.79-33,24,0,32.44,51.51,15.4,51.51,33.15,0,7.6-7.88,11.8-19.07,11.89-9.27,0-17.66-4.45-23.7-10.75l-11.2,10a47.73,47.73,0,0,0,34.29,14.69c18.36,0,35.23-10,35.23-26.67C224.83,43.45,173.33,61.38,173.33,43.45Z"/><path class="cls-1" d="M458.52,90.68h2a10.84,10.84,0,0,1,1.16.06,2.8,2.8,0,0,1,1,.31,1.65,1.65,0,0,1,.7.66,2.17,2.17,0,0,1,.26,1.13,1.73,1.73,0,0,1-.13.69,1.7,1.7,0,0,1-.34.54,2,2,0,0,1-.53.39,2.07,2.07,0,0,1-.65.21v0a1,1,0,0,1,.42.27,2,2,0,0,1,.36.53l1.51,3.19h-1.31l-1.22-2.77a2.05,2.05,0,0,0-.28-.46.71.71,0,0,0-.3-.23.78.78,0,0,0-.35-.08l-.42,0h-.69v3.56h-1.14Zm1.14,3.44h1a2.14,2.14,0,0,0,1.28-.33,1.09,1.09,0,0,0,.46-.92A1,1,0,0,0,462,92a2,2,0,0,0-1.21-.31h-1.1Zm8,.56a6.75,6.75,0,1,1-6.75-6.74A6.74,6.74,0,0,1,467.64,94.68Zm-1,0a5.74,5.74,0,1,0-5.74,5.74A5.75,5.75,0,0,0,466.63,94.68Z"/></svg>