<svg id="_26-02-2014" data-name="26-02-2014" xmlns="http://www.w3.org/2000/svg" viewBox="0 0 1190.55 1535.41"><defs><style>.cls-1,.cls-2{fill:#007934;}.cls-2{font-size:32px;font-family:MyriadPro-Semibold, Myriad Pro;font-weight:600;}.cls-3{letter-spacing:-0.07em;}.cls-4{letter-spacing:-0.03em;}.cls-5{letter-spacing:0em;}.cls-6{fill:#fff;}.cls-7{fill:#231f20;}</style></defs><rect class="cls-1" y="573.95" width="1190.55" height="224.71"/><rect class="cls-1" x="592.87" y="53.76" width="4.81" height="744.89"/><text class="cls-2" transform="translate(486.44 26.78)"><tspan class="cls-3">P</tspan><tspan x="15.62" y="0">AN</tspan><tspan class="cls-4" x="57.6" y="0">T</tspan><tspan class="cls-5" x="73.5" y="0">ONE 356 C</tspan></text><path class="cls-6" d="M127.64,140.59c41.1,0,74.43,27.75,74.43,62s-33.33,62-74.43,62-74.41-27.75-74.41-62S86.57,140.59,127.64,140.59Z" transform="translate(0.06 -43.23)"/><path class="cls-1" d="M139,201.64a25.19,25.19,0,1,0,25.19-25.36A25.56,25.56,0,0,0,139,201.64Zm25.19,38.3c16,0,29.47-8.83,35.77-21.86-8.58,27.37-39,47-72.24,47-21.77,0-42.32-8.48-56.31-22l7.17-18.63h31.13l5.61,13.83H130L98.74,164.92l-8.22-.09-29,66.28a53,53,0,0,1-8.41-28.42c0-35.15,35.42-62.51,74.6-62.51,30.7,0,59,16.69,70,40.83a39.6,39.6,0,0,0-33.49-17.66c-22,0-39.44,16.79-39.44,38.29s17.41,38.3,39.44,38.3ZM83.44,212.48h21.42l-10.67-26.4Z" transform="translate(0.06 -43.23)"/><path class="cls-1" d="M208.4,261.21h4.52v22.57H208.4Zm17.82,5.53a6.18,6.18,0,0,0-5.46,2.65h-.07v-2.27h-4.11v16.66h4.34v-8.15c0-2.13.67-5.53,3.8-5.53,2.79,0,2.82,2.75,2.82,4.79v8.89h4.33V273.27C231.87,269.51,230.16,266.74,226.22,266.74Zm18.95,0a6.19,6.19,0,0,0-5.46,2.65h-.08v-2.27h-4.1v16.66h4.33v-8.15c0-2.13.68-5.53,3.82-5.53,2.78,0,2.81,2.75,2.81,4.79v8.89h4.33V273.27C250.82,269.51,249.11,266.74,245.17,266.74Zm25,8.83c0,4.78-3.19,8.61-8.73,8.61s-8.69-3.83-8.69-8.61c0-5.5,3.78-8.83,8.69-8.83S270.19,270.07,270.19,275.57Zm-4.52-.51c0-2.56-1.37-5-4.21-5s-4.18,2.46-4.18,5c0,2.74.89,5.75,4.18,5.75S265.67,277.83,265.67,275.06Zm13.65,4.2h-.06l-4.14-12.14h-4.66l6.18,16.66h4.87l6.15-16.66h-4.33Zm23.94.8c0,1.28.08,2.44.18,3.73h-3.81a18.2,18.2,0,0,1-.18-2.5h-.07a6,6,0,0,1-5.15,2.89c-2.94,0-5.82-1.79-5.82-4.95a4.88,4.88,0,0,1,2.85-4.75,13,13,0,0,1,5.58-1h2.4c0-2.67-1.2-3.6-3.74-3.6a8.81,8.81,0,0,0-5.15,1.82l-.12-3.72a14.72,14.72,0,0,1,5.78-1.26c5.07,0,7.17,2.1,7.17,7v2.13C303.18,277.57,303.23,278.83,303.26,280.06Zm-4-4h-1.88c-1.92,0-4.81.33-4.81,2.88,0,1.42,1.18,2,2.75,2a3.65,3.65,0,0,0,3-1.5A5.44,5.44,0,0,0,299.24,276.09Zm15.2,4.72c-1.65,0-2-1.33-2-2.76v-7.76h3.84v-3.17H312.4v-4.71l-4.31,1.38v3.33h-3.23v3.17h3.23v8.47c0,3.31,1.86,5.42,5.24,5.42a11.22,11.22,0,0,0,3.21-.4l-.12-3.43A3.94,3.94,0,0,1,314.44,280.81Zm5.36,3h4.34V267.12H319.8Zm0-19.69h4.34v-4.15H319.8Zm24.46,11.48c0,4.78-3.2,8.61-8.73,8.61s-8.7-3.83-8.7-8.61c0-5.5,3.79-8.83,8.7-8.83S344.26,270.07,344.26,275.57Zm-4.53-.51c0-2.56-1.36-5-4.2-5s-4.18,2.46-4.18,5c0,2.74.88,5.75,4.18,5.75S339.73,277.83,339.73,275.06Zm16.75-8.32a6.18,6.18,0,0,0-5.45,2.65H351v-2.27h-4.1v16.66h4.32v-8.15c0-2.13.68-5.53,3.81-5.53,2.79,0,2.82,2.75,2.82,4.79v8.89h4.34V273.27C362.15,269.51,360.43,266.74,356.48,266.74Zm28.42,0a6.16,6.16,0,0,0-5.22,2.65h-.08v-9.87h-4.33v24.26h4.33v-8.15c0-2.13.69-5.53,3.82-5.53,2.78,0,2.82,2.75,2.82,4.79v8.89h4.33V273.27C390.57,269.51,388.86,266.74,384.9,266.74ZM408,280.06c0,1.28.1,2.44.2,3.73h-3.82a20.24,20.24,0,0,1-.19-2.5h-.06a6,6,0,0,1-5.14,2.89c-2.95,0-5.83-1.79-5.83-4.95a4.88,4.88,0,0,1,2.85-4.75,13,13,0,0,1,5.6-1H404c0-2.67-1.21-3.6-3.75-3.6a8.91,8.91,0,0,0-5.16,1.82L395,268a14.75,14.75,0,0,1,5.77-1.26c5.09,0,7.2,2.1,7.2,7v2.13C408,277.57,408,278.83,408,280.06Zm-4-4h-1.88c-1.94,0-4.83.33-4.83,2.88,0,1.42,1.21,2,2.76,2a3.66,3.66,0,0,0,3-1.5A5.5,5.5,0,0,0,404,276.09Zm11.52-4.33c0-1.43,1.39-1.86,2.55-1.86a10.47,10.47,0,0,1,3.88.73l.29-3.28a20.63,20.63,0,0,0-4.72-.61c-3.41,0-6.54,1.59-6.54,5.18,0,6,7.53,3.78,7.53,7.05,0,1.62-1.75,2-2.83,2a9.4,9.4,0,0,1-4.28-1.11l-.26,3.56a19.49,19.49,0,0,0,4.91.72c3.53,0,7-1.56,7-5.45C423.05,272.72,415.52,274.41,415.52,271.76Zm33.33,8.3c0,1.28.1,2.44.21,3.73h-3.83a22.06,22.06,0,0,1-.18-2.5H445a5.94,5.94,0,0,1-5.15,2.89c-2.94,0-5.81-1.79-5.81-4.95a4.87,4.87,0,0,1,2.85-4.75,13,13,0,0,1,5.58-1h2.4c0-2.67-1.2-3.6-3.74-3.6a8.78,8.78,0,0,0-5.15,1.82l-.13-3.72a14.85,14.85,0,0,1,5.79-1.26c5.08,0,7.18,2.1,7.18,7v2.13C448.79,277.57,448.83,278.83,448.85,280.06Zm-4-4H443c-1.93,0-4.81.33-4.81,2.88,0,1.42,1.2,2,2.74,2a3.68,3.68,0,0,0,3.05-1.5A5.56,5.56,0,0,0,444.84,276.09Zm26.52-9.35a6.2,6.2,0,0,0-5.46,2.65h-.07v-2.27h-4.1v16.66h4.32v-8.15c0-2.13.69-5.53,3.83-5.53,2.76,0,2.8,2.75,2.8,4.79v8.89H477V273.27C477,269.51,475.31,266.74,471.36,266.74Zm22.45,13.32c0,1.28.11,2.44.19,3.73h-3.81a22.8,22.8,0,0,1-.2-2.5h-.06a6,6,0,0,1-5.14,2.89c-2.94,0-5.82-1.79-5.82-4.95a4.88,4.88,0,0,1,2.83-4.75,13.11,13.11,0,0,1,5.6-1h2.4c0-2.67-1.2-3.6-3.76-3.6a8.75,8.75,0,0,0-5.13,1.82l-.13-3.72a14.79,14.79,0,0,1,5.77-1.26c5.1,0,7.19,2.1,7.19,7l0,2.13C493.76,277.57,493.77,278.83,493.81,280.06Zm-4-4h-1.88c-1.94,0-4.81.33-4.81,2.88,0,1.42,1.19,2,2.74,2a3.69,3.69,0,0,0,3-1.5A5.5,5.5,0,0,0,489.8,276.09Zm26.53-9.35a5.7,5.7,0,0,0-5.21,2.94,4.87,4.87,0,0,0-4.92-2.94,5.88,5.88,0,0,0-5,2.72h-.06v-2.34h-4v16.66h4.34V275.7c0-2.17.35-5.6,3.23-5.6,2.49,0,2.49,2.2,2.49,3.75v9.93h4.34V275.7c0-2.17.35-5.6,3.23-5.6,2.49,0,2.49,2.2,2.49,3.75v9.93h4.33V273.27C521.59,269.55,520.44,266.74,516.33,266.74Zm22.76,9.81H527.57c.2,2.69,2.08,4.21,4.76,4.21a11.25,11.25,0,0,0,5.54-1.69v3.53a11.55,11.55,0,0,1-5.74,1.33c-5.49,0-8.69-3.17-8.69-8.64,0-4.82,2.54-8.8,7.72-8.8C537.35,266.49,539.09,270.73,539.09,276.55Zm-4.15-3c-.11-2.1-1.09-3.91-3.52-3.91s-3.65,1.68-3.85,3.91Zm5.44,5.69v4.52h4.52v-4.52Z" transform="translate(0.06 -43.23)"/><path class="cls-7" d="M376.65,199.71l-.08,41.89h-13.3l-.18-42.5c0-6.12-6.47-6.29-6.47-6.29h-5.76s-.79.17-1.74.27c-8.41,1.83-11,8.3-11.12,15.65l.18,32.87H324.71V199.19c-.08-6.21-6.56-6.38-6.56-6.38h-5.86s-.79.17-1.75.27c-8.39,1.83-11,8.3-10.94,15.65V241.6H286.23V179.43H299.6v5.51a16.83,16.83,0,0,1,12.59-5.69h4.9c6,0,11.2,1.93,16.71,6.91,5.6-4.89,10.59-6.91,17-6.91h4.89C367.83,179.25,376.57,187,376.65,199.71Zm103.88-20.46H460.15v-12.5l-13.46-8.13v83h13.46l-.08-48.88H480.8a8,8,0,0,1,4,1c1.92.87,3.33,3,3.33,6.47V241.6h13.37l-.08-42C501.52,186.87,492.69,179.25,480.53,179.25Zm-44.85,13.48-.09-13.48h-7.78v-13.1l-12.59-7.61h-.53l-.09,34.19v26.93c.09,10.93,4.9,19.23,14.78,21.51a17.62,17.62,0,0,0,3.33.43h2.88l-.09-13.46h-1.83c-5.86,0-5.78-6.91-5.78-6.91v-28.5ZM388.89,241.6h13.3V179.25h-13.3Zm13.2-75.45-12.59-7.61h-.61v14.08h13.2ZM226.41,183.63c0-4.81,4.55-10.84,16.8-10.84,7.69,0,14.34,2.45,21.6,9.52l10.92-9.79c-7.87-8-18.53-12.14-31.84-12.14-18.18,0-33,9.79-33,24,0,32.44,51.51,15.4,51.51,33.15,0,7.6-7.87,11.8-19.07,11.89-9.26,0-17.66-4.46-23.69-10.75l-11.2,10.05a47.71,47.71,0,0,0,34.29,14.69c18.36,0,35.23-10,35.23-26.67C277.92,183.63,226.41,201.55,226.41,183.63Z" transform="translate(0.06 -43.23)"/><path class="cls-7" d="M511.6,230.85h2a10.76,10.76,0,0,1,1.15.07,3,3,0,0,1,1,.3,1.78,1.78,0,0,1,.7.66,2.11,2.11,0,0,1,.26,1.15,1.66,1.66,0,0,1-.12.67,1.53,1.53,0,0,1-.35.54,1.9,1.9,0,0,1-.53.4,2.25,2.25,0,0,1-.65.21v0a1,1,0,0,1,.43.27,2.41,2.41,0,0,1,.35.52l1.52,3.2H516l-1.23-2.78a1.84,1.84,0,0,0-.28-.45,1.06,1.06,0,0,0-.29-.24,1.37,1.37,0,0,0-.35-.08h-1.11v3.56H511.6Zm1.15,3.45h1A2.07,2.07,0,0,0,515,234a1.08,1.08,0,0,0,.46-.92,1,1,0,0,0-.41-.86,1.93,1.93,0,0,0-1.2-.31h-1.1Zm8,.56a6.74,6.74,0,1,1-6.75-6.74A6.74,6.74,0,0,1,520.72,234.86Zm-1,0A5.74,5.74,0,1,0,514,240.6,5.74,5.74,0,0,0,519.71,234.86Z" transform="translate(0.06 -43.23)"/><path class="cls-7" d="M139,440.14a25.19,25.19,0,1,0,25.19-25.36A25.56,25.56,0,0,0,139,440.14Zm25.19,38.3c16,0,29.47-8.84,35.77-21.86-8.58,27.37-39,47.05-72.24,47.05-21.77,0-42.32-8.49-56.31-22L78.54,463h31.13l5.61,13.83H130L98.74,403.42l-8.22-.09-29,66.27a52.94,52.94,0,0,1-8.41-28.41c0-35.15,35.42-62.51,74.6-62.51,30.7,0,59,16.69,70,40.83a39.61,39.61,0,0,0-33.49-17.67c-22,0-39.44,16.79-39.44,38.3s17.41,38.3,39.44,38.3ZM83.44,451h21.42L94.19,424.57Z" transform="translate(0.06 -43.23)"/><path class="cls-7" d="M208.4,499.7h4.52v22.58H208.4Zm17.82,5.53a6.18,6.18,0,0,0-5.46,2.65h-.07v-2.26h-4.11v16.66h4.34v-8.15c0-2.13.67-5.53,3.8-5.53,2.79,0,2.82,2.75,2.82,4.79v8.89h4.33V511.77C231.87,508,230.16,505.23,226.22,505.23Zm18.95,0a6.19,6.19,0,0,0-5.46,2.65h-.08v-2.26h-4.1v16.66h4.33v-8.15c0-2.13.68-5.53,3.82-5.53,2.78,0,2.81,2.75,2.81,4.79v8.89h4.33V511.77C250.82,508,249.11,505.23,245.17,505.23Zm25,8.83c0,4.79-3.19,8.61-8.73,8.61s-8.69-3.82-8.69-8.61c0-5.49,3.78-8.83,8.69-8.83S270.19,508.57,270.19,514.06Zm-4.52-.51c0-2.55-1.37-4.95-4.21-4.95s-4.18,2.46-4.18,4.95c0,2.75.89,5.76,4.18,5.76S265.67,516.33,265.67,513.55Zm13.65,4.21h-.06l-4.14-12.14h-4.66l6.18,16.66h4.87l6.15-16.66h-4.33Zm23.94.8c0,1.27.08,2.43.18,3.72h-3.81a18.2,18.2,0,0,1-.18-2.5h-.07a6,6,0,0,1-5.15,2.9c-2.94,0-5.82-1.79-5.82-5a4.88,4.88,0,0,1,2.85-4.74,13,13,0,0,1,5.58-1h2.4c0-2.68-1.2-3.6-3.74-3.6a8.8,8.8,0,0,0-5.15,1.81l-.12-3.71a14.73,14.73,0,0,1,5.78-1.27c5.07,0,7.17,2.11,7.17,7v2.13C303.18,516.07,303.23,517.33,303.26,518.56Zm-4-4h-1.88c-1.92,0-4.81.33-4.81,2.88,0,1.41,1.18,2,2.75,2a3.68,3.68,0,0,0,3-1.5A5.45,5.45,0,0,0,299.24,514.59Zm15.2,4.72c-1.65,0-2-1.33-2-2.76v-7.76h3.84v-3.17H312.4V500.9l-4.31,1.38v3.34h-3.23v3.17h3.23v8.47c0,3.3,1.86,5.41,5.24,5.41a11.26,11.26,0,0,0,3.21-.39l-.12-3.43A4.05,4.05,0,0,1,314.44,519.31Zm5.36,3h4.34V505.62H319.8Zm0-19.69h4.34v-4.15H319.8Zm24.46,11.47c0,4.79-3.2,8.61-8.73,8.61s-8.7-3.82-8.7-8.61c0-5.49,3.79-8.83,8.7-8.83S344.26,508.57,344.26,514.06Zm-4.53-.51c0-2.55-1.36-4.95-4.2-4.95s-4.18,2.46-4.18,4.95c0,2.75.88,5.76,4.18,5.76S339.73,516.33,339.73,513.55Zm16.75-8.32a6.18,6.18,0,0,0-5.45,2.65H351v-2.26h-4.1v16.66h4.32v-8.15c0-2.13.68-5.53,3.81-5.53,2.79,0,2.82,2.75,2.82,4.79v8.89h4.34V511.77C362.15,508,360.43,505.23,356.48,505.23Zm28.42,0a6.16,6.16,0,0,0-5.22,2.65h-.08V498h-4.33v24.27h4.33v-8.15c0-2.13.69-5.53,3.82-5.53,2.78,0,2.82,2.75,2.82,4.79v8.89h4.33V511.76C390.57,508,388.86,505.23,384.9,505.23ZM408,518.56c0,1.27.1,2.43.2,3.72h-3.82a20.24,20.24,0,0,1-.19-2.5h-.06a6,6,0,0,1-5.14,2.9c-2.95,0-5.83-1.79-5.83-5A4.88,4.88,0,0,1,396,513a13,13,0,0,1,5.6-1H404c0-2.68-1.21-3.6-3.75-3.6a8.9,8.9,0,0,0-5.16,1.81L395,506.5a14.76,14.76,0,0,1,5.77-1.27c5.09,0,7.2,2.11,7.2,7v2.13C408,516.07,408,517.33,408,518.56Zm-4-4h-1.88c-1.94,0-4.83.33-4.83,2.88,0,1.41,1.21,2,2.76,2a3.69,3.69,0,0,0,3-1.5A5.52,5.52,0,0,0,404,514.59Zm11.52-4.33c0-1.43,1.39-1.86,2.55-1.86a10.47,10.47,0,0,1,3.88.72l.29-3.27a20.63,20.63,0,0,0-4.72-.61c-3.41,0-6.54,1.58-6.54,5.18,0,6,7.53,3.77,7.53,7.05,0,1.61-1.75,2-2.83,2a9.53,9.53,0,0,1-4.28-1.11l-.26,3.56a20,20,0,0,0,4.91.72c3.53,0,7-1.57,7-5.45C423.05,511.22,415.52,512.9,415.52,510.26Zm33.33,8.3c0,1.27.1,2.43.21,3.72h-3.83a22.06,22.06,0,0,1-.18-2.5H445a5.93,5.93,0,0,1-5.15,2.9c-2.94,0-5.81-1.79-5.81-5a4.86,4.86,0,0,1,2.85-4.74,13,13,0,0,1,5.58-1h2.4c0-2.68-1.2-3.6-3.74-3.6a8.77,8.77,0,0,0-5.15,1.81l-.13-3.71a14.86,14.86,0,0,1,5.79-1.27c5.08,0,7.18,2.11,7.18,7v2.13C448.79,516.07,448.83,517.33,448.85,518.56Zm-4-4H443c-1.93,0-4.81.33-4.81,2.88,0,1.41,1.2,2,2.74,2a3.7,3.7,0,0,0,3.05-1.5A5.58,5.58,0,0,0,444.84,514.59Zm26.52-9.36a6.2,6.2,0,0,0-5.46,2.65h-.07v-2.26h-4.1v16.66h4.32v-8.15c0-2.13.69-5.53,3.83-5.53,2.76,0,2.8,2.75,2.8,4.79v8.89H477V511.77C477,508,475.31,505.23,471.36,505.23Zm22.45,13.33c0,1.27.11,2.43.19,3.72h-3.81a22.8,22.8,0,0,1-.2-2.5h-.06a6,6,0,0,1-5.14,2.9c-2.94,0-5.82-1.79-5.82-5A4.88,4.88,0,0,1,481.8,513a13.11,13.11,0,0,1,5.6-1h2.4c0-2.68-1.2-3.6-3.76-3.6a8.74,8.74,0,0,0-5.13,1.81l-.13-3.71a14.8,14.8,0,0,1,5.77-1.27c5.1,0,7.19,2.11,7.19,7l0,2.13C493.76,516.07,493.77,517.33,493.81,518.56Zm-4-4h-1.88c-1.94,0-4.81.33-4.81,2.88,0,1.41,1.19,2,2.74,2a3.72,3.72,0,0,0,3-1.5A5.51,5.51,0,0,0,489.8,514.59Zm26.53-9.36a5.69,5.69,0,0,0-5.21,2.95,4.88,4.88,0,0,0-4.92-2.95,5.91,5.91,0,0,0-5,2.72h-.06v-2.33h-4v16.66h4.34v-8.09c0-2.16.35-5.59,3.23-5.59,2.49,0,2.49,2.2,2.49,3.75v9.93h4.34v-8.09c0-2.16.35-5.59,3.23-5.59,2.49,0,2.49,2.2,2.49,3.75v9.93h4.33V511.77C521.59,508.05,520.44,505.23,516.33,505.23Zm22.76,9.82H527.57c.2,2.68,2.08,4.21,4.76,4.21a11.25,11.25,0,0,0,5.54-1.69v3.52a11.44,11.44,0,0,1-5.74,1.34c-5.49,0-8.69-3.17-8.69-8.64,0-4.82,2.54-8.8,7.72-8.8C537.35,505,539.09,509.23,539.09,515.05Zm-4.15-3c-.11-2.1-1.09-3.91-3.52-3.91s-3.65,1.68-3.85,3.91Zm5.44,5.69v4.52h4.52v-4.52Z" transform="translate(0.06 -43.23)"/><path class="cls-7" d="M376.65,438.21l-.08,41.89h-13.3l-.18-42.5c0-6.12-6.47-6.29-6.47-6.29h-5.76a16.78,16.78,0,0,1-1.74.26c-8.41,1.84-11,8.3-11.12,15.66l.18,32.87H324.71V437.69c-.08-6.21-6.56-6.38-6.56-6.38h-5.86a16.72,16.72,0,0,1-1.75.26c-8.39,1.84-11,8.3-10.94,15.66V480.1H286.23V417.93H299.6v5.51a16.79,16.79,0,0,1,12.59-5.69h4.9c6,0,11.2,1.93,16.71,6.91,5.6-4.9,10.59-6.91,17-6.91h4.89C367.83,417.75,376.57,425.54,376.65,438.21Zm103.88-20.46H460.15v-12.5l-13.46-8.13v83h13.46l-.08-48.88H480.8a8,8,0,0,1,4,1c1.92.88,3.33,3,3.33,6.46V480.1h13.37l-.08-42C501.52,425.37,492.69,417.75,480.53,417.75Zm-44.85,13.48-.09-13.48h-7.78v-13.1L415.22,397h-.53l-.09,34.19v26.92c.09,10.94,4.9,19.24,14.78,21.52a17.62,17.62,0,0,0,3.33.43h2.88l-.09-13.46h-1.83c-5.86,0-5.78-6.9-5.78-6.9V431.23ZM388.89,480.1h13.3V417.75h-13.3Zm13.2-75.45L389.5,397h-.61v14.08h13.2ZM226.41,422.12c0-4.81,4.55-10.83,16.8-10.83,7.69,0,14.34,2.45,21.6,9.52L275.73,411c-7.87-8-18.53-12.15-31.84-12.15-18.18,0-33,9.79-33,24,0,32.44,51.51,15.4,51.51,33.15,0,7.59-7.87,11.8-19.07,11.88-9.26,0-17.66-4.45-23.69-10.75l-11.2,10.05a47.68,47.68,0,0,0,34.29,14.7c18.36,0,35.23-10,35.23-26.68C277.92,422.12,226.41,440.05,226.41,422.12Z" transform="translate(0.06 -43.23)"/><path class="cls-7" d="M511.6,469.35h2a10.76,10.76,0,0,1,1.15.07,2.8,2.8,0,0,1,1,.3,1.71,1.71,0,0,1,.7.66,2.09,2.09,0,0,1,.26,1.14,1.68,1.68,0,0,1-.12.68,1.53,1.53,0,0,1-.35.54,2.11,2.11,0,0,1-.53.4,2.25,2.25,0,0,1-.65.21v0a1.22,1.22,0,0,1,.43.27,2.83,2.83,0,0,1,.35.53l1.52,3.2H516l-1.23-2.78a1.66,1.66,0,0,0-.28-.45.9.9,0,0,0-.29-.24.85.85,0,0,0-.35-.08h-1.11v3.56H511.6Zm1.15,3.45h1a2.07,2.07,0,0,0,1.28-.34,1.08,1.08,0,0,0,.46-.92,1,1,0,0,0-.41-.86,1.93,1.93,0,0,0-1.2-.32h-1.1Zm8,.56a6.74,6.74,0,1,1-6.75-6.74A6.75,6.75,0,0,1,520.72,473.36Zm-1,0A5.74,5.74,0,1,0,514,479.1,5.74,5.74,0,0,0,519.71,473.36Z" transform="translate(0.06 -43.23)"/><path class="cls-6" d="M139,719a25.19,25.19,0,1,0,25.19-25.35A25.57,25.57,0,0,0,139,719Zm25.19,38.3c16,0,29.47-8.83,35.77-21.85-8.58,27.36-39,47-72.24,47-21.77,0-42.32-8.48-56.31-22l7.17-18.62h31.13l5.61,13.82H130L98.74,682.27l-8.22-.09-29,66.28a52.94,52.94,0,0,1-8.41-28.41c0-35.16,35.42-62.52,74.6-62.52,30.7,0,59,16.7,70,40.84a39.61,39.61,0,0,0-33.49-17.67c-22,0-39.44,16.79-39.44,38.29s17.41,38.3,39.44,38.3ZM83.44,729.84h21.42L94.19,703.43Z" transform="translate(0.06 -43.23)"/><path class="cls-6" d="M208.4,778.56h4.52v22.57H208.4Zm17.82,5.53a6.18,6.18,0,0,0-5.46,2.65h-.07v-2.27h-4.11v16.66h4.34V793c0-2.13.67-5.53,3.8-5.53,2.79,0,2.82,2.75,2.82,4.79v8.89h4.33V790.62C231.87,786.86,230.16,784.09,226.22,784.09Zm18.95,0a6.19,6.19,0,0,0-5.46,2.65h-.08v-2.27h-4.1v16.66h4.33V793c0-2.13.68-5.53,3.82-5.53,2.78,0,2.81,2.75,2.81,4.79v8.89h4.33V790.62C250.82,786.86,249.11,784.09,245.17,784.09Zm25,8.83c0,4.78-3.19,8.6-8.73,8.6s-8.69-3.82-8.69-8.6c0-5.5,3.78-8.83,8.69-8.83S270.19,787.42,270.19,792.92Zm-4.52-.51c0-2.56-1.37-5-4.21-5s-4.18,2.46-4.18,5c0,2.73.89,5.75,4.18,5.75S265.67,795.18,265.67,792.41Zm13.65,4.19h-.06l-4.14-12.13h-4.66l6.18,16.66h4.87l6.15-16.66h-4.33Zm23.94.81c0,1.28.08,2.44.18,3.73h-3.81a18.3,18.3,0,0,1-.18-2.5h-.07a6,6,0,0,1-5.15,2.89c-2.94,0-5.82-1.79-5.82-5a4.9,4.9,0,0,1,2.85-4.75,13.14,13.14,0,0,1,5.58-1h2.4c0-2.67-1.2-3.6-3.74-3.6a8.81,8.81,0,0,0-5.15,1.82l-.12-3.72a14.72,14.72,0,0,1,5.78-1.26c5.07,0,7.17,2.1,7.17,7v2.13C303.18,794.92,303.23,796.18,303.26,797.41Zm-4-4h-1.88c-1.92,0-4.81.33-4.81,2.88,0,1.42,1.18,2,2.75,2a3.65,3.65,0,0,0,3-1.49A5.44,5.44,0,0,0,299.24,793.44Zm15.2,4.72c-1.65,0-2-1.33-2-2.76v-7.76h3.84v-3.17H312.4v-4.71l-4.31,1.38v3.33h-3.23v3.17h3.23v8.47c0,3.3,1.86,5.41,5.24,5.41a11.26,11.26,0,0,0,3.21-.39l-.12-3.43A4.05,4.05,0,0,1,314.44,798.16Zm5.36,3h4.34V784.47H319.8Zm0-19.69h4.34V777.3H319.8Zm24.46,11.48c0,4.78-3.2,8.6-8.73,8.6s-8.7-3.82-8.7-8.6c0-5.5,3.79-8.83,8.7-8.83S344.26,787.42,344.26,792.92Zm-4.53-.51c0-2.56-1.36-5-4.2-5s-4.18,2.46-4.18,5c0,2.73.88,5.75,4.18,5.75S339.73,795.18,339.73,792.41Zm16.75-8.32a6.18,6.18,0,0,0-5.45,2.65H351v-2.27h-4.1v16.66h4.32V793c0-2.13.68-5.53,3.81-5.53,2.79,0,2.82,2.75,2.82,4.79v8.89h4.34V790.62C362.15,786.86,360.43,784.09,356.48,784.09Zm28.42,0a6.16,6.16,0,0,0-5.22,2.65h-.08v-9.87h-4.33v24.26h4.33V793c0-2.13.69-5.53,3.82-5.53,2.78,0,2.82,2.75,2.82,4.79v8.89h4.33V790.62C390.57,786.86,388.86,784.09,384.9,784.09ZM408,797.41c0,1.28.1,2.44.2,3.73h-3.82a20.38,20.38,0,0,1-.19-2.5h-.06a6,6,0,0,1-5.14,2.89c-2.95,0-5.83-1.79-5.83-5a4.9,4.9,0,0,1,2.85-4.75,13.17,13.17,0,0,1,5.6-1H404c0-2.67-1.21-3.6-3.75-3.6a8.91,8.91,0,0,0-5.16,1.82l-.11-3.72a14.75,14.75,0,0,1,5.77-1.26c5.09,0,7.2,2.1,7.2,7v2.13C408,794.92,408,796.18,408,797.41Zm-4-4h-1.88c-1.94,0-4.83.33-4.83,2.88,0,1.42,1.21,2,2.76,2a3.65,3.65,0,0,0,3-1.49A5.5,5.5,0,0,0,404,793.44Zm11.52-4.33c0-1.43,1.39-1.86,2.55-1.86A10.47,10.47,0,0,1,422,788l.29-3.28a20.63,20.63,0,0,0-4.72-.61c-3.41,0-6.54,1.59-6.54,5.18,0,6,7.53,3.78,7.53,7.05,0,1.61-1.75,2-2.83,2a9.52,9.52,0,0,1-4.28-1.1l-.26,3.56a19.49,19.49,0,0,0,4.91.72c3.53,0,7-1.56,7-5.45C423.05,790.07,415.52,791.76,415.52,789.11Zm33.33,8.3c0,1.28.1,2.44.21,3.73h-3.83a22.22,22.22,0,0,1-.18-2.5H445a6,6,0,0,1-5.15,2.89c-2.94,0-5.81-1.79-5.81-5a4.89,4.89,0,0,1,2.85-4.75,13.14,13.14,0,0,1,5.58-1h2.4c0-2.67-1.2-3.6-3.74-3.6a8.78,8.78,0,0,0-5.15,1.82l-.13-3.72a14.85,14.85,0,0,1,5.79-1.26c5.08,0,7.18,2.1,7.18,7v2.13C448.79,794.92,448.83,796.18,448.85,797.41Zm-4-4H443c-1.93,0-4.81.33-4.81,2.88,0,1.42,1.2,2,2.74,2a3.67,3.67,0,0,0,3.05-1.49A5.56,5.56,0,0,0,444.84,793.44Zm26.52-9.35a6.2,6.2,0,0,0-5.46,2.65h-.07v-2.27h-4.1v16.66h4.32V793c0-2.13.69-5.53,3.83-5.53,2.76,0,2.8,2.75,2.8,4.79v8.89H477V790.62C477,786.86,475.31,784.09,471.36,784.09Zm22.45,13.32c0,1.28.11,2.44.19,3.73h-3.81a23,23,0,0,1-.2-2.5h-.06a6,6,0,0,1-5.14,2.89c-2.94,0-5.82-1.79-5.82-5a4.9,4.9,0,0,1,2.83-4.75,13.25,13.25,0,0,1,5.6-1h2.4c0-2.67-1.2-3.6-3.76-3.6a8.75,8.75,0,0,0-5.13,1.82l-.13-3.72a14.79,14.79,0,0,1,5.77-1.26c5.1,0,7.19,2.1,7.19,7l0,2.13C493.76,794.92,493.77,796.18,493.81,797.41Zm-4-4h-1.88c-1.94,0-4.81.33-4.81,2.88,0,1.42,1.19,2,2.74,2a3.68,3.68,0,0,0,3-1.49A5.5,5.5,0,0,0,489.8,793.44Zm26.53-9.35a5.7,5.7,0,0,0-5.21,2.94,4.89,4.89,0,0,0-4.92-2.94,5.88,5.88,0,0,0-5,2.72h-.06v-2.34h-4v16.66h4.34v-8.08c0-2.17.35-5.6,3.23-5.6,2.49,0,2.49,2.2,2.49,3.75v9.93h4.34v-8.08c0-2.17.35-5.6,3.23-5.6,2.49,0,2.49,2.2,2.49,3.75v9.93h4.33V790.62C521.59,786.9,520.44,784.09,516.33,784.09Zm22.76,9.81H527.57c.2,2.69,2.08,4.21,4.76,4.21a11.25,11.25,0,0,0,5.54-1.69v3.52a11.44,11.44,0,0,1-5.74,1.34c-5.49,0-8.69-3.17-8.69-8.63,0-4.82,2.54-8.81,7.72-8.81C537.35,783.84,539.09,788.08,539.09,793.9Zm-4.15-3c-.11-2.1-1.09-3.91-3.52-3.91s-3.65,1.68-3.85,3.91Zm5.44,5.68v4.53h4.52V796.6Z" transform="translate(0.06 -43.23)"/><path class="cls-6" d="M376.65,717.07,376.57,759h-13.3l-.18-42.5c0-6.12-6.47-6.3-6.47-6.3h-5.76a15.23,15.23,0,0,1-1.74.27c-8.41,1.83-11,8.3-11.12,15.65l.18,32.88H324.71V716.54c-.08-6.2-6.56-6.38-6.56-6.38h-5.86a15.19,15.19,0,0,1-1.75.27c-8.39,1.83-11,8.3-10.94,15.65V759H286.23V696.78H299.6v5.51a16.83,16.83,0,0,1,12.59-5.69h4.9c6,0,11.2,1.93,16.71,6.92,5.6-4.9,10.59-6.92,17-6.92h4.89C367.83,696.6,376.57,704.39,376.65,717.07ZM480.53,696.6H460.15V684.11L446.69,676v83h13.46l-.08-48.89H480.8a8,8,0,0,1,4,1c1.92.87,3.33,3,3.33,6.46V759h13.37l-.08-42C501.52,704.22,492.69,696.6,480.53,696.6Zm-44.85,13.48-.09-13.48h-7.78V683.5l-12.59-7.6h-.53l-.09,34.18V737c.09,10.94,4.9,19.23,14.78,21.51a17.24,17.24,0,0,0,3.33.44h2.88l-.09-13.46h-1.83c-5.86,0-5.78-6.91-5.78-6.91V710.08ZM388.89,759h13.3V696.6h-13.3Zm13.2-75.46-12.59-7.6h-.61V690h13.2ZM226.41,701c0-4.81,4.55-10.83,16.8-10.83,7.69,0,14.34,2.44,21.6,9.52l10.92-9.79c-7.87-8-18.53-12.15-31.84-12.15-18.18,0-33,9.79-33,24,0,32.44,51.51,15.4,51.51,33.15,0,7.6-7.87,11.8-19.07,11.89-9.26,0-17.66-4.45-23.69-10.75L208.4,746.1a47.73,47.73,0,0,0,34.29,14.7c18.36,0,35.23-10,35.23-26.68C277.92,701,226.41,718.91,226.41,701Z" transform="translate(0.06 -43.23)"/><path class="cls-6" d="M511.6,748.21h2a10.79,10.79,0,0,1,1.15.06,2.8,2.8,0,0,1,1,.31,1.65,1.65,0,0,1,.7.66,2.09,2.09,0,0,1,.26,1.14,1.68,1.68,0,0,1-.12.68,1.73,1.73,0,0,1-.35.54,1.87,1.87,0,0,1-.53.39,2,2,0,0,1-.65.21v0a1.09,1.09,0,0,1,.43.27,2.28,2.28,0,0,1,.35.53l1.52,3.19H516l-1.23-2.77a1.66,1.66,0,0,0-.28-.45.9.9,0,0,0-.29-.24.85.85,0,0,0-.35-.08l-.42,0h-.69v3.56H511.6Zm1.15,3.44h1a2.14,2.14,0,0,0,1.28-.33,1.09,1.09,0,0,0,.46-.92,1,1,0,0,0-.41-.87,1.93,1.93,0,0,0-1.2-.31h-1.1Zm8,.56a6.74,6.74,0,1,1-6.75-6.74A6.75,6.75,0,0,1,520.72,752.21Zm-1,0A5.74,5.74,0,1,0,514,758,5.75,5.75,0,0,0,519.71,752.21Z" transform="translate(0.06 -43.23)"/><path class="cls-6" d="M733,150.1c41.1,0,74.43,27.76,74.43,62s-33.33,62-74.43,62-74.41-27.75-74.41-62S691.93,150.1,733,150.1Z" transform="translate(0.06 -43.23)"/><path class="cls-1" d="M744.33,211.16a25.19,25.19,0,1,0,25.19-25.35,25.58,25.58,0,0,0-25.19,25.35Zm25.19,38.3c16,0,29.47-8.83,35.77-21.86-8.58,27.37-39,47-72.24,47-21.77,0-42.32-8.48-56.31-22l7.17-18.62H715l5.61,13.82h14.67l-31.21-73.45-8.22-.09-29,66.28a53.05,53.05,0,0,1-8.4-28.42c0-35.14,35.42-62.5,74.6-62.5,30.7,0,59,16.69,70,40.82a39.61,39.61,0,0,0-33.49-17.67c-22,0-39.44,16.8-39.44,38.3s17.41,38.3,39.44,38.3ZM688.81,222h21.42L699.56,195.6Z" transform="translate(0.06 -43.23)"/><path class="cls-7" d="M982,209.24l-.08,41.88h-13.3l-.18-42.49c0-6.12-6.47-6.3-6.47-6.3h-5.76a14.08,14.08,0,0,1-1.74.26c-8.41,1.84-11,8.31-11.12,15.66l.19,32.87H930.08V208.71c-.08-6.2-6.56-6.38-6.56-6.38h-5.86a14.06,14.06,0,0,1-1.75.26c-8.39,1.84-11,8.31-10.94,15.66v32.87H891.6V189H905v5.52a16.79,16.79,0,0,1,12.59-5.69h4.9c6,0,11.19,1.92,16.71,6.9,5.61-4.89,10.59-6.9,17-6.9H961C973.19,188.78,981.94,196.57,982,209.24Zm103.88-20.46h-20.38V176.27l-13.46-8.13v83h13.46l-.08-48.88h20.74a8,8,0,0,1,4,1c1.92.88,3.33,3,3.33,6.47v41.44h13.37l-.08-42C1106.89,196.39,1098.06,188.78,1085.9,188.78Zm-44.85,13.47-.09-13.47h-7.78V175.67l-12.59-7.61h-.53l-.09,34.19v26.93c.09,10.93,4.9,19.23,14.78,21.51a17.62,17.62,0,0,0,3.33.43H1041l-.08-13.46H1039c-5.85,0-5.77-6.9-5.77-6.9V202.25Zm-46.79,48.87h13.3V188.78h-13.3Zm13.2-75.45-12.59-7.61h-.61v14.08h13.2ZM831.78,193.14c0-4.8,4.55-10.83,16.8-10.83,7.69,0,14.34,2.45,21.6,9.52l10.92-9.78c-7.87-8-18.53-12.15-31.83-12.15-18.19,0-33,9.79-33,24,0,32.43,51.51,15.39,51.51,33.14,0,7.6-7.87,11.8-19.06,11.89-9.27,0-17.66-4.46-23.7-10.75l-11.2,10.05A47.69,47.69,0,0,0,848.05,253c18.37,0,35.24-10,35.24-26.67C883.29,193.14,831.78,211.07,831.78,193.14Z" transform="translate(0.06 -43.23)"/><path class="cls-7" d="M1117,240.38h2a10.84,10.84,0,0,1,1.16.06,3.15,3.15,0,0,1,1,.3,1.82,1.82,0,0,1,.69.66,2.12,2.12,0,0,1,.26,1.14,1.72,1.72,0,0,1-.47,1.23,1.74,1.74,0,0,1-.53.39,2.37,2.37,0,0,1-.65.22h0a1.23,1.23,0,0,1,.43.28,2,2,0,0,1,.35.53l1.51,3.19h-1.3l-1.23-2.78a1.84,1.84,0,0,0-.28-.45.87.87,0,0,0-.29-.23,1.06,1.06,0,0,0-.35-.09h-1.11v3.56H1117Zm1.14,3.44h1a2.12,2.12,0,0,0,1.28-.33,1.08,1.08,0,0,0,.46-.92,1,1,0,0,0-.41-.87,1.93,1.93,0,0,0-1.2-.32h-1.1Zm8,.56a6.74,6.74,0,1,1-6.74-6.74A6.74,6.74,0,0,1,1126.09,244.38Zm-1,0a5.74,5.74,0,1,0-5.74,5.74A5.75,5.75,0,0,0,1125.09,244.38Z" transform="translate(0.06 -43.23)"/><path class="cls-7" d="M744.33,449.66a25.19,25.19,0,1,0,25.19-25.35,25.57,25.57,0,0,0-25.19,25.35ZM769.52,488c16,0,29.47-8.84,35.77-21.86-8.58,27.37-39,47-72.24,47-21.77,0-42.32-8.48-56.31-22l7.17-18.62H715l5.61,13.82h14.67l-31.21-73.45-8.22-.09-29,66.27a53,53,0,0,1-8.4-28.41c0-35.15,35.42-62.51,74.6-62.51,30.7,0,59,16.69,70,40.83a39.6,39.6,0,0,0-33.49-17.66c-22,0-39.44,16.79-39.44,38.29S747.49,488,769.52,488Zm-80.71-27.45h21.42L699.56,434.1Z" transform="translate(0.06 -43.23)"/><path class="cls-7" d="M982,447.73l-.08,41.89h-13.3l-.18-42.5c0-6.13-6.47-6.29-6.47-6.29h-5.76s-.79.16-1.74.26c-8.41,1.84-11,8.31-11.12,15.66l.19,32.87H930.08V447.21c-.08-6.22-6.56-6.38-6.56-6.38h-5.86s-.79.16-1.75.26c-8.39,1.84-11,8.31-10.94,15.66v32.87H891.6V427.45H905V433a16.83,16.83,0,0,1,12.59-5.69h4.9c6,0,11.19,1.93,16.71,6.91,5.61-4.89,10.59-6.91,17-6.91H961C973.19,427.27,981.94,435.06,982,447.73Zm103.88-20.46h-20.38V414.78l-13.46-8.14v83h13.46l-.08-48.88h20.74a8,8,0,0,1,4,1c1.92.87,3.33,3,3.33,6.47v41.44h13.37l-.08-42C1106.89,434.89,1098.06,427.27,1085.9,427.27Zm-44.85,13.48-.09-13.48h-7.78v-13.1l-12.59-7.61h-.53l-.09,34.19v26.92c.09,10.94,4.9,19.24,14.78,21.52a17.62,17.62,0,0,0,3.33.43H1041l-.08-13.46H1039c-5.85,0-5.77-6.9-5.77-6.9V440.75Zm-46.79,48.87h13.3V427.27h-13.3Zm13.2-75.45-12.59-7.61h-.61v14.08h13.2ZM831.78,431.64c0-4.8,4.55-10.83,16.8-10.83,7.69,0,14.34,2.45,21.6,9.52l10.92-9.79c-7.87-8-18.53-12.14-31.83-12.14-18.19,0-33,9.79-33,24,0,32.44,51.51,15.4,51.51,33.14,0,7.61-7.87,11.81-19.06,11.89-9.27,0-17.66-4.45-23.7-10.75l-11.2,10.06a47.69,47.69,0,0,0,34.28,14.69c18.37,0,35.24-10,35.24-26.68C883.29,431.64,831.78,449.57,831.78,431.64Z" transform="translate(0.06 -43.23)"/><path class="cls-7" d="M1117,478.87h2a10.79,10.79,0,0,1,1.16.07,2.92,2.92,0,0,1,1,.3,1.75,1.75,0,0,1,.69.66A2.09,2.09,0,0,1,1122,481a1.65,1.65,0,0,1-.12.68,1.53,1.53,0,0,1-.35.54,2,2,0,0,1-.53.4,2.36,2.36,0,0,1-.65.21v0a1.22,1.22,0,0,1,.43.27,2.41,2.41,0,0,1,.35.53l1.51,3.2h-1.3l-1.23-2.78a1.84,1.84,0,0,0-.28-.45,1.06,1.06,0,0,0-.29-.24.85.85,0,0,0-.35-.08h-1.11v3.56H1117Zm1.14,3.45h1a2.05,2.05,0,0,0,1.28-.34,1.13,1.13,0,0,0,.05-1.78,1.87,1.87,0,0,0-1.2-.32h-1.1Zm8,.56a6.74,6.74,0,1,1-6.74-6.74A6.74,6.74,0,0,1,1126.09,482.88Zm-1,0a5.74,5.74,0,1,0-5.74,5.74A5.75,5.75,0,0,0,1125.09,482.88Z" transform="translate(0.06 -43.23)"/><path class="cls-6" d="M744.33,728.52a25.19,25.19,0,1,0,25.19-25.36,25.57,25.57,0,0,0-25.19,25.36Zm25.19,38.3c16,0,29.47-8.84,35.77-21.86-8.58,27.37-39,47-72.24,47-21.77,0-42.32-8.49-56.31-22l7.17-18.63H715l5.61,13.83h14.67L704.11,691.8l-8.22-.1-29,66.28a53,53,0,0,1-8.4-28.41c0-35.15,35.42-62.51,74.6-62.51,30.7,0,59,16.69,70,40.83a39.61,39.61,0,0,0-33.49-17.67c-22,0-39.44,16.8-39.44,38.3s17.41,38.3,39.44,38.3Zm-80.71-27.46h21.42L699.56,713Z" transform="translate(0.06 -43.23)"/><path class="cls-6" d="M982,726.59l-.08,41.89h-13.3l-.18-42.5c0-6.13-6.47-6.29-6.47-6.29h-5.76s-.79.16-1.74.26c-8.41,1.84-11,8.31-11.12,15.66l.19,32.87H930.08V726.06c-.08-6.21-6.56-6.37-6.56-6.37h-5.86s-.79.16-1.75.26c-8.39,1.84-11,8.31-10.94,15.66v32.87H891.6V706.31H905v5.51a16.79,16.79,0,0,1,12.59-5.69h4.9c6,0,11.19,1.92,16.71,6.91,5.61-4.9,10.59-6.91,17-6.91H961C973.19,706.13,981.94,713.92,982,726.59Zm103.88-20.46h-20.38v-12.5l-13.46-8.13v83h13.46l-.08-48.89h20.74a8,8,0,0,1,4,1c1.92.87,3.33,3,3.33,6.46v41.45h13.37l-.08-42C1106.89,713.75,1098.06,706.13,1085.9,706.13Zm-44.85,13.48-.09-13.48h-7.78V693l-12.59-7.61h-.53l-.09,34.19v26.92c.09,10.94,4.9,19.24,14.78,21.52a17.62,17.62,0,0,0,3.33.43H1041l-.08-13.46H1039c-5.85,0-5.77-6.91-5.77-6.91v-28.5Zm-46.79,48.87h13.3V706.13h-13.3Zm13.2-75.45-12.59-7.61h-.61v14.07h13.2ZM831.78,710.5c0-4.81,4.55-10.83,16.8-10.83,7.69,0,14.34,2.45,21.6,9.52l10.92-9.79c-7.87-8-18.53-12.15-31.83-12.15-18.19,0-33,9.79-33,24,0,32.44,51.51,15.4,51.51,33.15,0,7.59-7.87,11.8-19.06,11.88-9.27,0-17.66-4.45-23.7-10.75l-11.2,10a47.7,47.7,0,0,0,34.28,14.7c18.37,0,35.24-10,35.24-26.68C883.29,710.5,831.78,728.43,831.78,710.5Z" transform="translate(0.06 -43.23)"/><path class="cls-6" d="M1117,757.73h2a8.71,8.71,0,0,1,1.16.07,2.71,2.71,0,0,1,1,.3,1.75,1.75,0,0,1,.69.66,2.09,2.09,0,0,1,.26,1.14,1.68,1.68,0,0,1-.12.68,1.62,1.62,0,0,1-.35.54,1.74,1.74,0,0,1-.53.39,2.08,2.08,0,0,1-.65.22v0a1.09,1.09,0,0,1,.43.27,2.41,2.41,0,0,1,.35.53l1.51,3.19h-1.3l-1.23-2.78a1.76,1.76,0,0,0-.28-.44.9.9,0,0,0-.29-.24.85.85,0,0,0-.35-.08h-1.11v3.55H1117Zm1.14,3.45h1a2.05,2.05,0,0,0,1.28-.34,1.13,1.13,0,0,0,.05-1.78,1.87,1.87,0,0,0-1.2-.32h-1.1Zm8,.56a6.74,6.74,0,1,1-6.74-6.74A6.74,6.74,0,0,1,1126.09,761.74Zm-1,0a5.74,5.74,0,1,0-5.74,5.74A5.75,5.75,0,0,0,1125.09,761.74Z" transform="translate(0.06 -43.23)"/><path class="cls-6" d="M258.81,1496.1A25.19,25.19,0,1,0,284,1470.75a25.58,25.58,0,0,0-25.19,25.35ZM284,1534.4c16,0,29.47-8.83,35.77-21.85-8.58,27.36-39,47-72.24,47-21.77,0-42.31-8.48-56.31-22l7.17-18.62h31.13l5.61,13.82h14.68l-31.22-73.45-8.22-.09-29,66.28a53,53,0,0,1-8.4-28.42c0-35.15,35.41-62.51,74.59-62.51,30.7,0,59,16.7,70,40.83a39.65,39.65,0,0,0-33.5-17.66c-22,0-39.43,16.79-39.43,38.29s17.4,38.3,39.43,38.3ZM203.29,1507h21.42L214,1480.54Z" transform="translate(0.06 -43.23)"/><path class="cls-6" d="M328.25,1555.67h4.52v22.57h-4.52Zm17.82,5.53a6.18,6.18,0,0,0-5.46,2.65h-.07v-2.27h-4.11v16.66h4.34v-8.15c0-2.13.68-5.53,3.81-5.53,2.79,0,2.81,2.75,2.81,4.79v8.89h4.33v-10.51C351.72,1564,350,1561.2,346.07,1561.2Zm18.95,0a6.2,6.2,0,0,0-5.46,2.65h-.08v-2.27h-4.1v16.66h4.33v-8.15c0-2.13.69-5.53,3.82-5.53,2.79,0,2.81,2.75,2.81,4.79v8.89h4.34v-10.51C370.68,1564,369,1561.2,365,1561.2Zm25,8.83c0,4.78-3.18,8.6-8.73,8.6s-8.69-3.82-8.69-8.6c0-5.51,3.78-8.83,8.69-8.83S390,1564.52,390,1570Zm-4.52-.51c0-2.57-1.36-5-4.21-5s-4.18,2.46-4.18,5c0,2.73.89,5.75,4.18,5.75S385.52,1572.29,385.52,1569.52Zm13.65,4.19h-.06L395,1561.58h-4.66l6.19,16.66h4.87l6.14-16.66h-4.33Zm23.94.81c0,1.28.08,2.43.19,3.73h-3.82a18.33,18.33,0,0,1-.18-2.51h-.07a6,6,0,0,1-5.15,2.9c-2.94,0-5.81-1.79-5.81-5a4.89,4.89,0,0,1,2.84-4.75,13.14,13.14,0,0,1,5.58-1h2.41c0-2.67-1.2-3.6-3.75-3.6a8.81,8.81,0,0,0-5.15,1.82l-.12-3.72a14.77,14.77,0,0,1,5.79-1.26c5.06,0,7.17,2.1,7.17,7v2.13C423,1572,423.08,1573.29,423.11,1574.52Zm-4-4h-1.89c-1.92,0-4.81.33-4.81,2.88,0,1.42,1.19,2,2.75,2a3.68,3.68,0,0,0,3-1.49A5.52,5.52,0,0,0,419.1,1570.55Zm15.19,4.72c-1.65,0-2-1.33-2-2.76v-7.76h3.85v-3.17h-3.85v-4.71l-4.31,1.38v3.33h-3.22v3.17h3.22v8.47c0,3.3,1.86,5.41,5.24,5.41a11.26,11.26,0,0,0,3.21-.39l-.12-3.43A4.05,4.05,0,0,1,434.29,1575.27Zm5.37,3H444v-16.66h-4.34Zm0-19.69H444v-4.14h-4.34ZM464.12,1570c0,4.78-3.2,8.6-8.74,8.6s-8.7-3.82-8.7-8.6c0-5.51,3.79-8.83,8.7-8.83S464.12,1564.52,464.12,1570Zm-4.54-.51c0-2.57-1.35-5-4.2-5s-4.18,2.46-4.18,5c0,2.73.88,5.75,4.18,5.75S459.58,1572.29,459.58,1569.52Zm16.75-8.32a6.18,6.18,0,0,0-5.45,2.65h-.07v-2.27h-4.09v16.66H471v-8.15c0-2.13.69-5.53,3.82-5.53,2.78,0,2.81,2.75,2.81,4.79v8.89H482v-10.51C482,1564,480.28,1561.2,476.33,1561.2Zm28.42,0a6.16,6.16,0,0,0-5.22,2.65h-.07V1554h-4.34v24.26h4.34v-8.15c0-2.13.68-5.53,3.81-5.53,2.79,0,2.83,2.75,2.83,4.79v8.89h4.33v-10.52C510.43,1564,508.71,1561.2,504.75,1561.2Zm23.11,13.32c0,1.28.09,2.43.19,3.73h-3.81a18.84,18.84,0,0,1-.2-2.51H524a6,6,0,0,1-5.14,2.9c-3,0-5.83-1.79-5.83-5a4.9,4.9,0,0,1,2.85-4.75,13.2,13.2,0,0,1,5.6-1h2.4c0-2.67-1.21-3.6-3.76-3.6a8.88,8.88,0,0,0-5.15,1.82l-.12-3.72a14.76,14.76,0,0,1,5.78-1.26c5.09,0,7.2,2.1,7.2,7v2.13C527.81,1572,527.82,1573.29,527.86,1574.52Zm-4-4H522c-2,0-4.84.33-4.84,2.88,0,1.42,1.21,2,2.76,2a3.64,3.64,0,0,0,3-1.49A5.52,5.52,0,0,0,523.86,1570.55Zm11.51-4.33c0-1.43,1.39-1.86,2.56-1.86a10.46,10.46,0,0,1,3.87.73l.29-3.28a20.55,20.55,0,0,0-4.72-.61c-3.41,0-6.54,1.59-6.54,5.18,0,6,7.54,3.78,7.54,7,0,1.61-1.75,2-2.84,2a9.55,9.55,0,0,1-4.28-1.1l-.26,3.56a20,20,0,0,0,4.91.72c3.54,0,7-1.57,7-5.45C542.9,1567.18,535.37,1568.87,535.37,1566.22Zm33.34,8.3c0,1.28.1,2.43.2,3.73h-3.83a22.22,22.22,0,0,1-.18-2.51h-.08a6,6,0,0,1-5.15,2.9c-2.94,0-5.81-1.79-5.81-5a4.89,4.89,0,0,1,2.85-4.75,13.15,13.15,0,0,1,5.59-1h2.4c0-2.67-1.2-3.6-3.75-3.6a8.81,8.81,0,0,0-5.15,1.82l-.13-3.72a14.85,14.85,0,0,1,5.79-1.26c5.08,0,7.18,2.1,7.18,7v2.13C568.64,1572,568.68,1573.29,568.71,1574.52Zm-4-4h-1.88c-1.94,0-4.82.33-4.82,2.88,0,1.42,1.2,2,2.75,2a3.66,3.66,0,0,0,3-1.49A5.52,5.52,0,0,0,564.7,1570.55Zm26.52-9.35a6.21,6.21,0,0,0-5.47,2.65h-.07v-2.27h-4.1v16.66h4.33v-8.15c0-2.13.69-5.53,3.83-5.53,2.76,0,2.8,2.75,2.8,4.79v8.89h4.34v-10.51C596.88,1564,595.16,1561.2,591.22,1561.2Zm22.44,13.32c0,1.28.11,2.43.19,3.73h-3.8a23,23,0,0,1-.2-2.51h-.06a6,6,0,0,1-5.15,2.9c-2.94,0-5.82-1.79-5.82-5a4.91,4.91,0,0,1,2.84-4.75,13.2,13.2,0,0,1,5.6-1h2.39c0-2.67-1.2-3.6-3.75-3.6a8.75,8.75,0,0,0-5.14,1.82l-.13-3.72a14.84,14.84,0,0,1,5.78-1.26c5.09,0,7.18,2.1,7.18,7l0,2.13C613.61,1572,613.63,1573.29,613.66,1574.52Zm-4-4h-1.88c-1.93,0-4.81.33-4.81,2.88,0,1.42,1.19,2,2.74,2a3.67,3.67,0,0,0,3-1.49A5.51,5.51,0,0,0,609.65,1570.55Zm26.53-9.35a5.71,5.71,0,0,0-5.21,2.94,4.88,4.88,0,0,0-4.92-2.94,5.9,5.9,0,0,0-5,2.72H621v-2.34h-4v16.66h4.33v-8.08c0-2.17.35-5.6,3.23-5.6,2.49,0,2.49,2.2,2.49,3.75v9.93h4.34v-8.08c0-2.17.35-5.6,3.23-5.6,2.49,0,2.49,2.2,2.49,3.75v9.93h4.34v-10.51C641.45,1564,640.29,1561.2,636.18,1561.2Zm22.76,9.81H647.43c.19,2.68,2.07,4.21,4.75,4.21a11.22,11.22,0,0,0,5.54-1.69v3.52a11.41,11.41,0,0,1-5.74,1.34c-5.49,0-8.68-3.17-8.68-8.63,0-4.82,2.54-8.81,7.72-8.81C657.2,1561,658.94,1565.19,658.94,1571Zm-4.14-3c-.12-2.1-1.1-3.91-3.52-3.91s-3.66,1.68-3.85,3.91Zm5.44,5.68v4.53h4.52v-4.53Z" transform="translate(0.06 -43.23)"/><path class="cls-6" d="M496.5,1494.18l-.08,41.88h-13.3l-.18-42.49c0-6.13-6.46-6.3-6.46-6.3h-5.77s-.79.17-1.74.27c-8.41,1.83-11,8.3-11.12,15.65l.19,32.87H444.56v-42.41c-.08-6.21-6.56-6.38-6.56-6.38h-5.86s-.79.17-1.75.27c-8.39,1.83-11,8.3-10.94,15.65v32.87H406.08v-62.17h13.37v5.51a16.83,16.83,0,0,1,12.6-5.69H437c5.95,0,11.19,1.93,16.7,6.92,5.61-4.9,10.59-6.92,17-6.92h4.89C487.68,1473.71,496.42,1481.5,496.5,1494.18Zm103.89-20.47H580v-12.49l-13.46-8.14v83H580l-.09-48.88h20.74a7.89,7.89,0,0,1,4,1c1.92.87,3.33,3,3.33,6.46v41.44h13.38l-.09-42C621.38,1481.33,612.54,1473.71,600.39,1473.71Zm-44.85,13.48-.1-13.48h-7.77v-13.1l-12.6-7.6h-.53l-.08,34.18v26.93c.08,10.94,4.9,19.23,14.77,21.51a17.71,17.71,0,0,0,3.33.43h2.88l-.08-13.45h-1.84c-5.85,0-5.77-6.91-5.77-6.91v-28.51Zm-46.8,48.87h13.31v-62.35H508.74Zm13.2-75.45-12.58-7.6h-.62v14.07h13.2Zm-175.67,17.48c0-4.81,4.54-10.83,16.79-10.83,7.69,0,14.34,2.44,21.6,9.52l10.92-9.79c-7.87-8-18.53-12.15-31.83-12.15-18.19,0-33,9.79-33,24,0,32.44,51.5,15.4,51.5,33.15,0,7.6-7.87,11.8-19.06,11.89-9.27,0-17.66-4.45-23.7-10.75l-11.2,10a47.71,47.71,0,0,0,34.29,14.69c18.36,0,35.23-10,35.23-26.67C397.77,1478.09,346.27,1496,346.27,1478.09Z" transform="translate(0.06 -43.23)"/><path class="cls-6" d="M631.46,1525.32h2a10.65,10.65,0,0,1,1.15.06,2.93,2.93,0,0,1,1,.31,1.68,1.68,0,0,1,.69.66,2.08,2.08,0,0,1,.27,1.13,1.78,1.78,0,0,1-1,1.62,2,2,0,0,1-.64.21v0a1.13,1.13,0,0,1,.42.27,2,2,0,0,1,.36.53l1.51,3.19h-1.31l-1.23-2.77a1.74,1.74,0,0,0-.27-.46.86.86,0,0,0-.3-.23.85.85,0,0,0-.35-.08l-.42,0h-.69v3.56h-1.14Zm1.14,3.44h1a2.1,2.1,0,0,0,1.28-.33,1.15,1.15,0,0,0,.06-1.79,2,2,0,0,0-1.21-.31h-1.1Zm8,.56a6.74,6.74,0,1,1-6.74-6.74A6.73,6.73,0,0,1,640.57,1529.32Zm-1,0a5.74,5.74,0,1,0-5.74,5.74A5.75,5.75,0,0,0,639.57,1529.32Z" transform="translate(0.06 -43.23)"/></svg>