<svg xmlns="http://www.w3.org/2000/svg" xmlns:xlink="http://www.w3.org/1999/xlink" viewBox="0 0 114.23 41.77"><defs><style>.cls-1,.cls-11{fill:none;}.cls-2{isolation:isolate;}.cls-3{clip-path:url(#clip-path);}.cls-4{clip-path:url(#clip-path-2);}.cls-5{fill:url(#linear-gradient);}.cls-6{clip-path:url(#clip-path-3);}.cls-7{fill:url(#linear-gradient-2);}.cls-8{clip-path:url(#clip-path-4);}.cls-9{fill:url(#linear-gradient-3);}.cls-10{mix-blend-mode:soft-light;}.cls-11{stroke:#010101;stroke-linejoin:round;stroke-width:0.5px;}.cls-12{clip-path:url(#clip-path-7);}.cls-13{fill:url(#linear-gradient-4);}.cls-14{clip-path:url(#clip-path-8);}.cls-15{fill:url(#linear-gradient-5);}.cls-16{clip-path:url(#clip-path-9);}.cls-17{fill:url(#linear-gradient-6);}</style><clipPath id="clip-path" transform="translate(-3.36 -7.6)"><rect class="cls-1" width="125.2" height="58.89"/></clipPath><clipPath id="clip-path-2" transform="translate(-3.36 -7.6)"><path class="cls-1" d="M27.13,34.84a.24.24,0,0,0,.23-.16q.5-1.26,1-2.4c.34-.77.71-1.51,1.1-2.22L39.92,9.45a3.11,3.11,0,0,1,.53-.76A1.63,1.63,0,0,1,41,8.31a2.44,2.44,0,0,1,.75-.15c.31,0,.66,0,1.07,0h7v40.3H42V25.21c0-.54,0-1.12,0-1.75s.08-1.27.15-1.92a.23.23,0,0,0-.17-.26.25.25,0,0,0-.3.12l-10.83,21a3.43,3.43,0,0,1-1.27,1.39,3.52,3.52,0,0,1-1.82.47H26.49a3.52,3.52,0,0,1-1.82-.47,3.37,3.37,0,0,1-1.27-1.39l-10.83-21a.24.24,0,0,0-.29-.12.24.24,0,0,0-.18.26c.05.67.1,1.33.14,2s0,1.23,0,1.76V48.43H4.45V8.13h7c.41,0,.76,0,1.06,0a2.44,2.44,0,0,1,.76.15,1.73,1.73,0,0,1,.57.38,3.41,3.41,0,0,1,.53.76L24.83,30.14c.37.71.74,1.44,1.08,2.2s.68,1.56,1,2.34a.24.24,0,0,0,.23.16ZM42.84,7.63c-.42,0-.78,0-1.1,0a3.13,3.13,0,0,0-.9.18,2.22,2.22,0,0,0-.74.49,3.84,3.84,0,0,0-.62.89L29,29.82c-.4.72-.77,1.48-1.11,2.26-.26.58-.52,1.2-.77,1.83-.25-.59-.5-1.19-.77-1.77-.34-.77-.71-1.52-1.08-2.23L14.78,9.22a3.71,3.71,0,0,0-.62-.89,2.17,2.17,0,0,0-.75-.49,3,3,0,0,0-.9-.18c-.31,0-.67,0-1.09,0H4.2A.25.25,0,0,0,4,7.88V48.67a.26.26,0,0,0,.25.26h8.34a.26.26,0,0,0,.25-.26V25.21c0-.54,0-1.15-.06-1.79,0-.25,0-.5,0-.75L23,42.6a3.87,3.87,0,0,0,1.45,1.59,4.12,4.12,0,0,0,2.08.53h1.28a4.12,4.12,0,0,0,2.08-.53A3.87,3.87,0,0,0,31.3,42.6L41.55,22.77c0,.22,0,.45,0,.67,0,.63,0,1.23,0,1.77V48.67a.26.26,0,0,0,.25.26h8.34a.26.26,0,0,0,.25-.26V7.88a.25.25,0,0,0-.25-.25Z"/></clipPath><linearGradient id="linear-gradient" y1="58.89" x2="1" y2="58.89" gradientTransform="matrix(0, -41.24, -41.24, 0, 2452.79, 41.52)" gradientUnits="userSpaceOnUse"><stop offset="0" stop-color="#77787b"/><stop offset="0.2" stop-color="#a7a9ac"/><stop offset="0.4" stop-color="#e6e7e8"/><stop offset="0.6" stop-color="#a7a9ac"/><stop offset="0.8" stop-color="#e6e7e8"/><stop offset="1" stop-color="#77787b"/></linearGradient><clipPath id="clip-path-3" transform="translate(-3.36 -7.6)"><path class="cls-1" d="M65,42.58a2.19,2.19,0,0,1-.72-1.88,2.49,2.49,0,0,1,.35-1.28,3.07,3.07,0,0,1,1.25-1.05,10.51,10.51,0,0,1,2.6-.82,28.12,28.12,0,0,1,4-.43v3.67a8.74,8.74,0,0,1-2.4,1.78,6.71,6.71,0,0,1-2.83.56A3.7,3.7,0,0,1,65,42.58m7.7-6a29.34,29.34,0,0,0-4.32.45,10.7,10.7,0,0,0-2.73.87,3.37,3.37,0,0,0-1.45,1.24,2.94,2.94,0,0,0-.42,1.53A2.66,2.66,0,0,0,64.7,43a4.22,4.22,0,0,0,2.53.65,7.08,7.08,0,0,0,3-.61,9.08,9.08,0,0,0,2.62-2,.24.24,0,0,0,.07-.18v-4a.29.29,0,0,0-.07-.18.26.26,0,0,0-.18-.07h0M59.81,27.25a3.63,3.63,0,0,1-.93-1l-1.47-2.54A17.52,17.52,0,0,1,63,20.45a20.4,20.4,0,0,1,6.79-1.12,12.47,12.47,0,0,1,4.65.83A10,10,0,0,1,78,22.49,10.28,10.28,0,0,1,80.15,26a12.8,12.8,0,0,1,.77,4.5v17.9H77.19a3.89,3.89,0,0,1-1.74-.31,2.37,2.37,0,0,1-.94-1.27l-.61-1.6a.26.26,0,0,0-.17-.15.28.28,0,0,0-.23,0,25.65,25.65,0,0,1-2.08,1.61,12.63,12.63,0,0,1-2,1.17,9.76,9.76,0,0,1-2.24.71,14.48,14.48,0,0,1-2.66.23,11.81,11.81,0,0,1-3.53-.5,7.36,7.36,0,0,1-2.67-1.48,6.45,6.45,0,0,1-1.69-2.41A9,9,0,0,1,56,41.11a7,7,0,0,1,.75-3.06,7.72,7.72,0,0,1,2.64-2.85A17.3,17.3,0,0,1,64.52,33a35.17,35.17,0,0,1,8.2-1,.24.24,0,0,0,.24-.25V30.53a5.59,5.59,0,0,0-1.11-3.85,4.11,4.11,0,0,0-3.17-1.21,8.28,8.28,0,0,0-2.6.34,11.89,11.89,0,0,0-1.79.78c-.5.27-1,.52-1.48.75a4,4,0,0,1-1.63.31,2.27,2.27,0,0,1-1.37-.4m3-7.27a18,18,0,0,0-5.92,3.5.26.26,0,0,0-.05.32l1.58,2.72a3.83,3.83,0,0,0,1.07,1.13,2.75,2.75,0,0,0,1.66.5A4.38,4.38,0,0,0,63,27.79c.49-.23,1-.48,1.51-.76a10.85,10.85,0,0,1,1.71-.74A7.59,7.59,0,0,1,68.68,26,3.64,3.64,0,0,1,71.48,27a5.13,5.13,0,0,1,1,3.51v1a34.34,34.34,0,0,0-8.07,1,17.61,17.61,0,0,0-5.29,2.26,8.17,8.17,0,0,0-2.79,3,7.45,7.45,0,0,0-.81,3.28,9.38,9.38,0,0,0,.63,3.56A7,7,0,0,0,58,47.27a7.76,7.76,0,0,0,2.84,1.57,12,12,0,0,0,3.69.53,14.59,14.59,0,0,0,2.75-.24,10.56,10.56,0,0,0,2.35-.74,13.75,13.75,0,0,0,2.13-1.22c.59-.41,1.21-.88,1.85-1.41L74.05,47a2.82,2.82,0,0,0,1.16,1.53,4.23,4.23,0,0,0,2,.37h4a.26.26,0,0,0,.25-.26V30.53a13.37,13.37,0,0,0-.8-4.68,10.72,10.72,0,0,0-2.31-3.71,10.44,10.44,0,0,0-3.67-2.44,12.84,12.84,0,0,0-4.84-.87,20.91,20.91,0,0,0-7,1.15"/></clipPath><linearGradient id="linear-gradient-2" y1="58.89" y2="58.89" gradientTransform="matrix(0, -41.24, -41.24, 0, 2494.11, 41.52)" xlink:href="#linear-gradient"/><clipPath id="clip-path-4" transform="translate(-3.36 -7.6)"><path class="cls-1" d="M101,29.52a.25.25,0,0,0,.21-.17,7.29,7.29,0,0,1,.41-1c.16-.31.34-.64.55-1L105.85,21a2.76,2.76,0,0,1,.75-.82,1.73,1.73,0,0,1,.94-.24H115l-9.08,13.24a.26.26,0,0,0,0,.28l9.5,15h-7.89a2.16,2.16,0,0,1-1.34-.4,3.22,3.22,0,0,1-.85-1l-5.18-8.91A.26.26,0,0,0,100,38h0a.25.25,0,0,0-.21.18,5.13,5.13,0,0,1-.33.86,6.77,6.77,0,0,1-.4.76L94.74,47a6.3,6.3,0,0,1-.88,1,1.75,1.75,0,0,1-1.21.42H85.38l9.5-14.63a.24.24,0,0,0,0-.27L85.78,19.89h7.88a2.66,2.66,0,0,1,1.23.21,1.83,1.83,0,0,1,.68.7l5.18,8.6a.25.25,0,0,0,.22.12h0m6.55-10.13a2.23,2.23,0,0,0-1.21.32,3.11,3.11,0,0,0-.91,1l-3.69,6.46c-.21.35-.4.69-.57,1s-.17.36-.25.54L96,20.55a2.46,2.46,0,0,0-.86-.89,3.17,3.17,0,0,0-1.48-.27H85.31a.26.26,0,0,0-.22.13.27.27,0,0,0,0,.26l9.26,13.89L84.71,48.54a.25.25,0,0,0,0,.25.27.27,0,0,0,.22.14h7.73a2.27,2.27,0,0,0,1.54-.54,6.71,6.71,0,0,0,1-1.1l4.25-7.22a7.73,7.73,0,0,0,.44-.81c.06-.13.11-.26.17-.4l4.9,8.42a3.66,3.66,0,0,0,1,1.14,2.6,2.6,0,0,0,1.65.51h8.35a.26.26,0,0,0,.22-.13.27.27,0,0,0,0-.26l-9.65-15.26,9.25-13.5a.25.25,0,0,0,0-.26.25.25,0,0,0-.22-.13Z"/></clipPath><linearGradient id="linear-gradient-3" y1="58.89" y2="58.89" gradientTransform="matrix(0, -41.24, -41.24, 0, 2526.07, 41.52)" xlink:href="#linear-gradient"/><clipPath id="clip-path-7" transform="translate(-3.36 -7.6)"><path class="cls-1" d="M42.84,7.88q-.62,0-1.08,0a2.66,2.66,0,0,0-.83.17,1.72,1.72,0,0,0-.65.43,3.33,3.33,0,0,0-.58.82L29.23,29.94c-.39.71-.76,1.46-1.11,2.24s-.67,1.59-1,2.41c-.32-.8-.65-1.59-1-2.35s-.71-1.5-1.08-2.21L14.56,9.33A3.33,3.33,0,0,0,14,8.51a1.72,1.72,0,0,0-.65-.43,2.66,2.66,0,0,0-.83-.17q-.46,0-1.08,0H4.2V48.67h8.34V25.21c0-.54,0-1.13,0-1.78s-.09-1.3-.14-2l10.83,21A3.62,3.62,0,0,0,24.54,44a3.73,3.73,0,0,0,1.95.5h1.28a3.73,3.73,0,0,0,1.95-.5,3.62,3.62,0,0,0,1.36-1.48l10.83-21c-.07.66-.12,1.3-.15,1.94s0,1.22,0,1.76V48.67h8.34V7.88Z"/></clipPath><linearGradient id="linear-gradient-4" y1="58.89" x2="1" y2="58.89" gradientTransform="matrix(0, -38.86, -38.86, 0, 2312.5, 40.53)" gradientUnits="userSpaceOnUse"><stop offset="0" stop-color="#77787b"/><stop offset="0.2" stop-color="#e6e7e8"/><stop offset="0.4" stop-color="#a7a9ac"/><stop offset="0.6" stop-color="#e6e7e8"/><stop offset="0.8" stop-color="#a7a9ac"/><stop offset="1" stop-color="#77787b"/></linearGradient><clipPath id="clip-path-8" transform="translate(-3.36 -7.6)"><path class="cls-1" d="M64.85,42.78A2.44,2.44,0,0,1,64,40.7a2.72,2.72,0,0,1,.38-1.4,3.19,3.19,0,0,1,1.36-1.15,10.06,10.06,0,0,1,2.66-.84,27.45,27.45,0,0,1,4.28-.45v4a8.94,8.94,0,0,1-2.54,1.91,6.92,6.92,0,0,1-2.94.58,4,4,0,0,1-2.38-.6M62.93,20.21a17.65,17.65,0,0,0-5.84,3.46l1.57,2.72a3.91,3.91,0,0,0,1,1.06,2.48,2.48,0,0,0,1.51.45,4.06,4.06,0,0,0,1.74-.34c.48-.22,1-.47,1.49-.75a12.43,12.43,0,0,1,1.75-.76,8.06,8.06,0,0,1,2.52-.33,3.84,3.84,0,0,1,3,1.13,5.32,5.32,0,0,1,1,3.68v1.23a35.14,35.14,0,0,0-8.26,1A17.14,17.14,0,0,0,59.25,35a7.72,7.72,0,0,0-2.72,2.94,7.22,7.22,0,0,0-.78,3.17,9.06,9.06,0,0,0,.61,3.46,6.65,6.65,0,0,0,1.75,2.51,7.71,7.71,0,0,0,2.76,1.53,12,12,0,0,0,3.61.51,14.86,14.86,0,0,0,2.7-.23,10.65,10.65,0,0,0,2.3-.73A14.55,14.55,0,0,0,71.57,47c.67-.47,1.37-1,2.1-1.63l.61,1.6a2.55,2.55,0,0,0,1,1.4,4.13,4.13,0,0,0,1.86.33h4V30.53a13.09,13.09,0,0,0-.78-4.59,10.56,10.56,0,0,0-2.26-3.63,10.3,10.3,0,0,0-3.58-2.38,12.56,12.56,0,0,0-4.75-.85,20.63,20.63,0,0,0-6.87,1.13"/></clipPath><linearGradient id="linear-gradient-5" y1="58.89" y2="58.89" gradientTransform="matrix(0, -38.86, -38.86, 0, 2353.83, 40.53)" xlink:href="#linear-gradient-4"/><clipPath id="clip-path-9" transform="translate(-3.36 -7.6)"><path class="cls-1" d="M107.54,19.64a1.89,1.89,0,0,0-1.07.28,2.93,2.93,0,0,0-.83.9L102,27.28a11.3,11.3,0,0,0-.56,1,7.8,7.8,0,0,0-.43,1l-5.17-8.6a2.16,2.16,0,0,0-.77-.79,3,3,0,0,0-1.36-.24H85.31l9.36,14-9.75,15h7.73A2,2,0,0,0,94,48.2a5.63,5.63,0,0,0,.92-1l4.26-7.22a8.22,8.22,0,0,0,.42-.78,7.32,7.32,0,0,0,.34-.9l5.18,8.9a3.44,3.44,0,0,0,.91,1.07,2.34,2.34,0,0,0,1.49.44h8.35l-9.75-15.39,9.36-13.64Z"/></clipPath><linearGradient id="linear-gradient-6" y1="58.89" y2="58.89" gradientTransform="matrix(0, -38.86, -38.86, 0, 2385.78, 40.53)" xlink:href="#linear-gradient-4"/></defs><g class="cls-2"><g id="Layer_1" data-name="Layer 1"><g class="cls-3"><g class="cls-4"><rect class="cls-5" x="0.59" y="0.03" width="46.36" height="41.3"/></g><g class="cls-6"><rect class="cls-7" x="52.14" y="11.23" width="25.92" height="30.54"/></g><g class="cls-8"><rect class="cls-9" x="81.3" y="11.79" width="31.49" height="29.54"/></g><g class="cls-3"><g class="cls-10"><g class="cls-3"><path class="cls-11" d="M24.47,30,14,9.31a3.71,3.71,0,0,0-.57-.83,2,2,0,0,0-.66-.43,2.66,2.66,0,0,0-.83-.17q-.46,0-1.08,0H3.61v40.8H12V25.18c0-.54,0-1.13,0-1.77s-.1-1.3-.17-1.95l10.86,21A3.56,3.56,0,0,0,24,43.94a3.73,3.73,0,0,0,1.95.51h1.29a3.72,3.72,0,0,0,1.94-.51,3.56,3.56,0,0,0,1.36-1.48l10.81-21c-.11,1.32-.17,2.55-.17,3.69V48.65h8.34V7.85H42.25q-.61,0-1.08,0a2.54,2.54,0,0,0-.82.17,1.8,1.8,0,0,0-.66.43,3.41,3.41,0,0,0-.58.83L28.64,29.92c-.37.72-.74,1.48-1.09,2.25s-.69,1.57-1,2.39c-.32-.8-.65-1.58-1-2.35S24.84,30.71,24.47,30Z" transform="translate(-3.36 -7.6)"/><path class="cls-11" d="M65.27,42.75a2.4,2.4,0,0,1-.82-2.08,2.72,2.72,0,0,1,.38-1.4,3.3,3.3,0,0,1,1.37-1.15,10.06,10.06,0,0,1,2.66-.84,30.45,30.45,0,0,1,4.3-.45v4a8.92,8.92,0,0,1-2.55,1.91,7,7,0,0,1-3,.59A3.92,3.92,0,0,1,65.27,42.75Zm16.35,5.9V30.5a12.86,12.86,0,0,0-.79-4.59,10.08,10.08,0,0,0-5.83-6,12.6,12.6,0,0,0-4.75-.86,20.3,20.3,0,0,0-6.87,1.14,17.45,17.45,0,0,0-5.84,3.45l1.57,2.72a3.19,3.19,0,0,0,1,1.08,2.62,2.62,0,0,0,1.53.43,4.14,4.14,0,0,0,1.73-.33c.49-.23,1-.48,1.5-.76A11.94,11.94,0,0,1,66.61,26a8,8,0,0,1,2.52-.33,3.87,3.87,0,0,1,3,1.13,5.34,5.34,0,0,1,1,3.68v1.24a35.19,35.19,0,0,0-8.26,1A17.32,17.32,0,0,0,59.69,35a7.86,7.86,0,0,0-2.71,3,7.2,7.2,0,0,0-.79,3.17,9.09,9.09,0,0,0,.62,3.46,6.69,6.69,0,0,0,1.75,2.5,7.62,7.62,0,0,0,2.76,1.53,12,12,0,0,0,3.61.52,14,14,0,0,0,2.7-.24,10.29,10.29,0,0,0,2.3-.73A13.11,13.11,0,0,0,72,46.94q1-.7,2.1-1.62l.62,1.59a2.55,2.55,0,0,0,1,1.4,4,4,0,0,0,1.86.34Z" transform="translate(-3.36 -7.6)"/><path class="cls-11" d="M86.38,48.65H94.1a2.16,2.16,0,0,0,1.4-.46,3.7,3.7,0,0,0,.9-1l4.26-7.23a7.16,7.16,0,0,0,.42-.78,6,6,0,0,0,.33-.9l5.18,8.91a3.76,3.76,0,0,0,.93,1.06,2.27,2.27,0,0,0,1.48.45h8.34l-9.74-15.4L117,19.61h-8a2.07,2.07,0,0,0-1.09.27,2.37,2.37,0,0,0-.81.91l-3.7,6.47c-.21.35-.39.69-.56,1a6.42,6.42,0,0,0-.42,1l-5.18-8.59a2.05,2.05,0,0,0-.77-.8,2.92,2.92,0,0,0-1.36-.24H86.77l9.35,14Z" transform="translate(-3.36 -7.6)"/></g></g></g><g class="cls-12"><rect class="cls-13" x="0.84" y="0.28" width="45.86" height="40.79"/></g><g class="cls-14"><rect class="cls-15" x="52.39" y="11.48" width="25.42" height="30.04"/></g><g class="cls-16"><rect class="cls-17" x="81.56" y="12.04" width="30.97" height="29.03"/></g></g></g></g></svg>