<svg id="Layer_1" data-name="Layer 1" xmlns="http://www.w3.org/2000/svg" xmlns:xlink="http://www.w3.org/1999/xlink" viewBox="0 0 315.1 117.34"><defs><style>.cls-1{fill:none;}.cls-2{clip-path:url(#clip-path);}.cls-3{clip-path:url(#clip-path-2);}.cls-4{fill:url(#linear-gradient);}.cls-5{clip-path:url(#clip-path-3);}.cls-6{fill:url(#linear-gradient-2);}.cls-7{clip-path:url(#clip-path-4);}.cls-8{fill:url(#linear-gradient-3);}.cls-9{clip-path:url(#clip-path-5);}.cls-10{fill:url(#linear-gradient-4);}.cls-11{clip-path:url(#clip-path-6);}.cls-12{fill:url(#linear-gradient-5);}.cls-13{clip-path:url(#clip-path-7);}.cls-14{fill:url(#linear-gradient-6);}.cls-15{clip-path:url(#clip-path-8);}.cls-16{fill:url(#linear-gradient-7);}.cls-17{clip-path:url(#clip-path-9);}.cls-18{fill:url(#linear-gradient-8);}.cls-19{clip-path:url(#clip-path-10);}.cls-20{clip-path:url(#clip-path-11);}.cls-21{fill:url(#linear-gradient-9);}.cls-22{clip-path:url(#clip-path-12);}.cls-23{fill:url(#linear-gradient-10);}.cls-24{clip-path:url(#clip-path-13);}.cls-25{fill:url(#linear-gradient-11);}.cls-26{clip-path:url(#clip-path-14);}.cls-27{fill:url(#linear-gradient-12);}.cls-28{clip-path:url(#clip-path-15);}.cls-29{fill:url(#linear-gradient-13);}.cls-30{clip-path:url(#clip-path-16);}.cls-31{fill:url(#linear-gradient-14);}.cls-32{fill:#fff;}</style><clipPath id="clip-path"><rect class="cls-1" x="29.6" width="125.2" height="58.89"/></clipPath><clipPath id="clip-path-2"><path class="cls-1" d="M56.73,34.84a.25.25,0,0,0,.23-.16q.49-1.26,1-2.4c.34-.77.71-1.51,1.1-2.22L69.52,9.45a3.11,3.11,0,0,1,.53-.76,1.63,1.63,0,0,1,.57-.38,2.44,2.44,0,0,1,.75-.15c.31,0,.66,0,1.07,0h7v40.3H71.57V25.21c0-.54,0-1.12,0-1.75s.08-1.27.15-1.92a.23.23,0,0,0-.17-.26.25.25,0,0,0-.3.12l-10.83,21a3.43,3.43,0,0,1-1.27,1.39,3.52,3.52,0,0,1-1.82.47H56.08a3.51,3.51,0,0,1-1.81-.47A3.37,3.37,0,0,1,53,42.37l-10.83-21a.24.24,0,0,0-.29-.12.24.24,0,0,0-.18.26c0,.67.1,1.33.14,2s0,1.23,0,1.76V48.43H34.05V8.13h7c.41,0,.76,0,1.06,0a2.44,2.44,0,0,1,.76.15,1.73,1.73,0,0,1,.57.38,3.11,3.11,0,0,1,.52.76l10.5,20.69c.37.71.73,1.44,1.08,2.2s.68,1.56,1,2.34a.24.24,0,0,0,.23.16ZM72.44,7.63c-.42,0-.78,0-1.1,0a3.13,3.13,0,0,0-.9.18,2.22,2.22,0,0,0-.74.49,3.84,3.84,0,0,0-.62.89L58.61,29.82c-.4.72-.77,1.48-1.12,2.26-.25.58-.51,1.2-.76,1.83-.25-.59-.5-1.19-.77-1.77-.34-.77-.71-1.52-1.08-2.23L44.38,9.22a3.71,3.71,0,0,0-.62-.89A2.17,2.17,0,0,0,43,7.84a3,3,0,0,0-.9-.18c-.31,0-.67,0-1.09,0H33.8a.25.25,0,0,0-.25.25V48.67a.26.26,0,0,0,.25.26h8.34a.26.26,0,0,0,.25-.26V25.21c0-.54,0-1.15-.06-1.79,0-.25,0-.5,0-.75L52.56,42.6A3.8,3.8,0,0,0,54,44.19a4.11,4.11,0,0,0,2.07.53h1.29a4.12,4.12,0,0,0,2.08-.53A3.87,3.87,0,0,0,60.9,42.6L71.15,22.77c0,.22,0,.45,0,.67,0,.63,0,1.23,0,1.77V48.67a.26.26,0,0,0,.25.26h8.34a.26.26,0,0,0,.25-.26V7.88a.25.25,0,0,0-.25-.25Z"/></clipPath><linearGradient id="linear-gradient" x1="502.2" y1="246.13" x2="503.2" y2="246.13" gradientTransform="matrix(0, -42.08, -42.08, 0, 10414.71, 21183.3)" gradientUnits="userSpaceOnUse"><stop offset="0" stop-color="#77787b"/><stop offset="0.2" stop-color="#a7a9ac"/><stop offset="0.4" stop-color="#e6e7e8"/><stop offset="0.6" stop-color="#a7a9ac"/><stop offset="0.8" stop-color="#e6e7e8"/><stop offset="1" stop-color="#77787b"/></linearGradient><clipPath id="clip-path-3"><path class="cls-1" d="M88,19.89h8.18V48.43H88Zm-.25-.5a.25.25,0,0,0-.25.25v29a.26.26,0,0,0,.25.26h8.68a.26.26,0,0,0,.25-.26v-29a.25.25,0,0,0-.25-.25Zm2.37-3.3a5.53,5.53,0,0,1-1.56-1,4.88,4.88,0,0,1-1.07-1.52,4.56,4.56,0,0,1-.38-1.84,4.76,4.76,0,0,1,.38-1.89,5,5,0,0,1,2.63-2.59A4.94,4.94,0,0,1,92,6.84a5.34,5.34,0,0,1,2,.37,5.17,5.17,0,0,1,1.62,1A5.07,5.07,0,0,1,96.68,9.8a4.45,4.45,0,0,1,.4,1.89,4.26,4.26,0,0,1-.4,1.84,4.94,4.94,0,0,1-1.09,1.52,5.55,5.55,0,0,1-1.62,1,5.13,5.13,0,0,1-2,.38,4.67,4.67,0,0,1-1.9-.38m-.2-9.34A5.66,5.66,0,0,0,88.21,7.9,5.58,5.58,0,0,0,87,9.6a5.2,5.2,0,0,0-.42,2.09A5.08,5.08,0,0,0,87,13.74a5.45,5.45,0,0,0,1.18,1.67,5.81,5.81,0,0,0,1.71,1.14A5.21,5.21,0,0,0,92,17a5.54,5.54,0,0,0,2.15-.43,5.73,5.73,0,0,0,1.77-1.14,5.54,5.54,0,0,0,1.21-1.67,4.94,4.94,0,0,0,.44-2.05,5.05,5.05,0,0,0-.44-2.09,5.52,5.52,0,0,0-3-2.85A5.74,5.74,0,0,0,92,6.34a5.5,5.5,0,0,0-2.1.41"/></clipPath><linearGradient id="linear-gradient-2" x1="502.2" y1="246.13" x2="503.2" y2="246.13" gradientTransform="matrix(0, -42.08, -42.08, 0, 10449.61, 21182.32)" xlink:href="#linear-gradient"/><clipPath id="clip-path-4"><path class="cls-1" d="M112.09,23a19.17,19.17,0,0,1,1.71-1.44,9.81,9.81,0,0,1,1.87-1.11,11,11,0,0,1,2.17-.71,11.77,11.77,0,0,1,2.53-.26,10.06,10.06,0,0,1,4.12.8,8.6,8.6,0,0,1,3,2.24,9.61,9.61,0,0,1,1.86,3.41,14.29,14.29,0,0,1,.63,4.33V48.43H121.8V30.22a5.3,5.3,0,0,0-1-3.47,3.76,3.76,0,0,0-3.07-1.28,6.43,6.43,0,0,0-2.79.62,11.08,11.08,0,0,0-2.48,1.68.24.24,0,0,0-.08.19V48.43h-8.18V19.89h5.12a1.79,1.79,0,0,1,1.89,1.28l.51,1.68a.26.26,0,0,0,.17.17h.07a.28.28,0,0,0,.17-.07m5.64-3.75a11.1,11.1,0,0,0-2.26.75,10,10,0,0,0-2,1.16c-.49.37-1,.78-1.46,1.2L111.65,21a2.29,2.29,0,0,0-2.37-1.62h-5.37a.25.25,0,0,0-.25.25v29a.26.26,0,0,0,.25.26h8.68a.26.26,0,0,0,.25-.26V28.07a10.59,10.59,0,0,1,2.28-1.53,5.89,5.89,0,0,1,2.57-.57,3.25,3.25,0,0,1,2.69,1.09,4.9,4.9,0,0,1,.92,3.16V48.67a.26.26,0,0,0,.25.26h8.68a.26.26,0,0,0,.25-.26V30.22a14.66,14.66,0,0,0-.66-4.48,10,10,0,0,0-1.95-3.59,9,9,0,0,0-3.18-2.36,10.5,10.5,0,0,0-4.32-.85,12.23,12.23,0,0,0-2.64.27"/></clipPath><linearGradient id="linear-gradient-3" x1="502.2" y1="246.13" x2="503.2" y2="246.13" gradientTransform="matrix(0, -42.08, -42.08, 0, 10475.07, 21183.34)" xlink:href="#linear-gradient"/><clipPath id="clip-path-5"><path class="cls-1" d="M137.68,19.89h8.18V48.43h-8.18Zm-.25-.5a.25.25,0,0,0-.25.25v29a.26.26,0,0,0,.25.26h8.68a.26.26,0,0,0,.25-.26v-29a.25.25,0,0,0-.25-.25Zm2.36-3.3a5.53,5.53,0,0,1-1.56-1,4.93,4.93,0,0,1-1.07-1.52,4.56,4.56,0,0,1-.38-1.84,4.76,4.76,0,0,1,.38-1.89,5,5,0,0,1,2.63-2.59,4.94,4.94,0,0,1,1.89-.37,5.43,5.43,0,0,1,2,.37,5.13,5.13,0,0,1,1.61,1,5.07,5.07,0,0,1,1.09,1.55,4.45,4.45,0,0,1,.4,1.89,4.4,4.4,0,0,1-.39,1.84,5.14,5.14,0,0,1-1.1,1.52,5.42,5.42,0,0,1-1.62,1,5,5,0,0,1-1.95.39,4.72,4.72,0,0,1-1.9-.39m-.19-9.34a5.58,5.58,0,0,0-1.72,1.15,5.27,5.27,0,0,0-1.17,1.7,5,5,0,0,0-.43,2.09,4.93,4.93,0,0,0,.43,2.05,5.26,5.26,0,0,0,1.17,1.67,6,6,0,0,0,1.71,1.14,5.24,5.24,0,0,0,2.09.43,5.59,5.59,0,0,0,2.16-.43,6,6,0,0,0,1.77-1.14,5.51,5.51,0,0,0,1.2-1.67,4.94,4.94,0,0,0,.44-2.05,5.05,5.05,0,0,0-.44-2.09,5.56,5.56,0,0,0-1.2-1.71,5.68,5.68,0,0,0-3.92-1.55,5.45,5.45,0,0,0-2.09.41"/></clipPath><linearGradient id="linear-gradient-4" x1="502.2" y1="246.13" x2="503.2" y2="246.13" gradientTransform="matrix(0, -42.08, -42.08, 0, 10499.3, 21182.35)" xlink:href="#linear-gradient"/><clipPath id="clip-path-6"><path class="cls-1" d="M72.44,7.88q-.61,0-1.08,0a2.66,2.66,0,0,0-.83.17,1.83,1.83,0,0,0-.66.43,3.62,3.62,0,0,0-.57.82L58.83,29.94c-.39.71-.76,1.46-1.11,2.24s-.67,1.59-1,2.41c-.32-.8-.65-1.59-1-2.35S55,30.74,54.66,30L44.16,9.33a3.33,3.33,0,0,0-.58-.82,1.72,1.72,0,0,0-.65-.43,2.66,2.66,0,0,0-.83-.17q-.47,0-1.08,0H33.8V48.67h8.34V25.21c0-.54,0-1.13,0-1.78s-.09-1.3-.15-2l10.84,21A3.62,3.62,0,0,0,54.14,44a3.72,3.72,0,0,0,1.94.5h1.29a3.73,3.73,0,0,0,2-.5,3.62,3.62,0,0,0,1.36-1.48l10.83-21c-.07.66-.12,1.3-.15,1.94s0,1.22,0,1.76V48.67h8.34V7.88Z"/></clipPath><linearGradient id="linear-gradient-5" x1="502.46" y1="246.81" x2="503.46" y2="246.81" gradientTransform="matrix(0, -39.65, -39.65, 0, 9843.59, 19971.94)" gradientUnits="userSpaceOnUse"><stop offset="0" stop-color="#77787b"/><stop offset="0.2" stop-color="#e6e7e8"/><stop offset="0.4" stop-color="#a7a9ac"/><stop offset="0.6" stop-color="#e6e7e8"/><stop offset="0.8" stop-color="#a7a9ac"/><stop offset="1" stop-color="#77787b"/></linearGradient><clipPath id="clip-path-7"><path class="cls-1" d="M87.75,48.67h8.68v-29H87.75ZM90,7a5.49,5.49,0,0,0-1.64,1.1A5.11,5.11,0,0,0,87.26,9.7a4.91,4.91,0,0,0-.4,2,4.68,4.68,0,0,0,.4,1.94,5.14,5.14,0,0,0,1.12,1.6A5.66,5.66,0,0,0,90,16.32a4.92,4.92,0,0,0,2,.41,5.3,5.3,0,0,0,2.06-.41,5.52,5.52,0,0,0,1.69-1.09,5.06,5.06,0,0,0,1.15-1.6,4.54,4.54,0,0,0,.42-1.94,4.77,4.77,0,0,0-.42-2,5,5,0,0,0-1.15-1.62A5.36,5.36,0,0,0,94.07,7,5.47,5.47,0,0,0,92,6.59,5.08,5.08,0,0,0,90,7"/></clipPath><linearGradient id="linear-gradient-6" x1="502.46" y1="246.81" x2="503.46" y2="246.81" gradientTransform="matrix(0, -39.65, -39.65, 0, 9878.96, 19971.95)" xlink:href="#linear-gradient-5"/><clipPath id="clip-path-8"><path class="cls-1" d="M117.78,19.46a10.81,10.81,0,0,0-2.21.73,9.77,9.77,0,0,0-1.92,1.13,21.24,21.24,0,0,0-1.73,1.46l-.51-1.68a2,2,0,0,0-2.13-1.46h-5.37v29h8.68V28A10.35,10.35,0,0,1,115,26.32a6.08,6.08,0,0,1,2.68-.6,3.51,3.51,0,0,1,2.88,1.18,5.11,5.11,0,0,1,1,3.32V48.67h8.68V30.22a14.87,14.87,0,0,0-.64-4.41,10,10,0,0,0-1.91-3.5A8.73,8.73,0,0,0,124.59,20a10.22,10.22,0,0,0-4.22-.83,11.77,11.77,0,0,0-2.59.27"/></clipPath><linearGradient id="linear-gradient-7" x1="502.46" y1="246.81" x2="503.46" y2="246.81" gradientTransform="matrix(0, -39.65, -39.65, 0, 9903.93, 19971.93)" xlink:href="#linear-gradient-5"/><clipPath id="clip-path-9"><path class="cls-1" d="M137.43,48.67h8.68v-29h-8.68ZM139.69,7a5.33,5.33,0,0,0-1.63,1.1,5,5,0,0,0-1.12,1.62,4.76,4.76,0,0,0-.41,2,4.53,4.53,0,0,0,.41,1.94,5,5,0,0,0,1.12,1.6,5.48,5.48,0,0,0,1.63,1.09,4.92,4.92,0,0,0,2,.41,5.26,5.26,0,0,0,2.06-.41,5.52,5.52,0,0,0,1.69-1.09,5.06,5.06,0,0,0,1.15-1.6,4.54,4.54,0,0,0,.42-1.94,4.77,4.77,0,0,0-.42-2,5,5,0,0,0-1.15-1.62A5.36,5.36,0,0,0,143.74,7a5.43,5.43,0,0,0-2.06-.39,5.08,5.08,0,0,0-2,.39"/></clipPath><linearGradient id="linear-gradient-8" x1="502.46" y1="246.81" x2="503.46" y2="246.81" gradientTransform="matrix(0, -39.65, -39.65, 0, 9928.63, 19971.95)" xlink:href="#linear-gradient-5"/><clipPath id="clip-path-10"><rect class="cls-1" y="58.45" width="125.2" height="58.89"/></clipPath><clipPath id="clip-path-11"><path class="cls-1" d="M27.13,93.29a.24.24,0,0,0,.23-.16c.33-.84.66-1.65,1-2.4s.71-1.52,1.1-2.23L39.92,67.9a3.41,3.41,0,0,1,.53-.77,1.6,1.6,0,0,1,.57-.37,2.43,2.43,0,0,1,.75-.16l1.07,0h7v40.29H42V83.66c0-.54,0-1.12,0-1.76s.08-1.26.15-1.91a.25.25,0,0,0-.17-.27.26.26,0,0,0-.3.13l-10.83,21a3.34,3.34,0,0,1-1.27,1.38,3.52,3.52,0,0,1-1.82.47H26.49a3.52,3.52,0,0,1-1.82-.47,3.34,3.34,0,0,1-1.27-1.38l-10.83-21a.24.24,0,0,0-.29-.12.24.24,0,0,0-.18.26c.05.67.1,1.32.14,2s0,1.23,0,1.77v23.21H4.45V66.58h7l1.06,0a2.43,2.43,0,0,1,.76.16,1.69,1.69,0,0,1,.57.37,3.77,3.77,0,0,1,.53.77L24.83,88.59c.37.7.74,1.44,1.08,2.2s.68,1.56,1,2.34a.24.24,0,0,0,.23.16ZM42.84,66.08l-1.1,0a3.5,3.5,0,0,0-.9.19,2.22,2.22,0,0,0-.74.49,3.45,3.45,0,0,0-.62.89L29,88.27c-.4.72-.77,1.48-1.11,2.26-.26.58-.52,1.2-.77,1.83-.25-.59-.5-1.19-.77-1.78-.34-.76-.71-1.51-1.08-2.22L14.78,67.67a3.71,3.71,0,0,0-.62-.89,2.17,2.17,0,0,0-.75-.49,3.32,3.32,0,0,0-.9-.19l-1.09,0H4.2a.25.25,0,0,0-.25.25v40.79a.25.25,0,0,0,.25.25h8.34a.25.25,0,0,0,.25-.25V83.66c0-.55,0-1.15-.06-1.79,0-.25,0-.5,0-.76L23,101.05a3.84,3.84,0,0,0,1.45,1.58,4,4,0,0,0,2.08.54h1.28a4,4,0,0,0,2.08-.54,3.84,3.84,0,0,0,1.45-1.58L41.55,81.22c0,.22,0,.44,0,.66,0,.64,0,1.23,0,1.78v23.46a.25.25,0,0,0,.25.25h8.34a.25.25,0,0,0,.25-.25V66.33a.25.25,0,0,0-.25-.25Z"/></clipPath><linearGradient id="linear-gradient-9" x1="500.87" y1="247.07" x2="501.87" y2="247.07" gradientTransform="matrix(0, -41.24, -41.24, 0, 10217.39, 20765.58)" xlink:href="#linear-gradient"/><clipPath id="clip-path-12"><path class="cls-1" d="M65,101a2.21,2.21,0,0,1-.72-1.89,2.48,2.48,0,0,1,.35-1.27,3,3,0,0,1,1.25-1.05,10.1,10.1,0,0,1,2.6-.82,28.12,28.12,0,0,1,4-.43v3.67a8.74,8.74,0,0,1-2.4,1.78,6.71,6.71,0,0,1-2.83.56A3.77,3.77,0,0,1,65,101m7.7-6a28,28,0,0,0-4.32.45,11.15,11.15,0,0,0-2.73.86,3.45,3.45,0,0,0-1.45,1.25,2.9,2.9,0,0,0-.42,1.52,2.67,2.67,0,0,0,.92,2.29,4.22,4.22,0,0,0,2.53.65,7.23,7.23,0,0,0,3-.61,9.13,9.13,0,0,0,2.62-2,.22.22,0,0,0,.07-.17v-4a.27.27,0,0,0-.07-.18.26.26,0,0,0-.18-.07h0M59.81,85.7a3.63,3.63,0,0,1-.93-1l-1.47-2.54A17.52,17.52,0,0,1,63,78.9a20.15,20.15,0,0,1,6.79-1.12,12.47,12.47,0,0,1,4.65.83A10.11,10.11,0,0,1,78,80.93a10.28,10.28,0,0,1,2.2,3.54A12.9,12.9,0,0,1,80.92,89v17.89H77.19a3.91,3.91,0,0,1-1.74-.3,2.45,2.45,0,0,1-.94-1.27l-.61-1.6a.23.23,0,0,0-.17-.15.28.28,0,0,0-.23,0c-.72.61-1.42,1.15-2.08,1.61a13.42,13.42,0,0,1-2,1.17,10.85,10.85,0,0,1-2.24.71,14.48,14.48,0,0,1-2.66.23,11.49,11.49,0,0,1-3.53-.51,7.2,7.2,0,0,1-2.67-1.47,6.53,6.53,0,0,1-1.69-2.41A9,9,0,0,1,56,99.56a7.07,7.07,0,0,1,.75-3.07,7.78,7.78,0,0,1,2.64-2.84,17,17,0,0,1,5.13-2.19,34.64,34.64,0,0,1,8.2-1,.24.24,0,0,0,.24-.25V89a5.57,5.57,0,0,0-1.11-3.85,4.11,4.11,0,0,0-3.17-1.22,8.25,8.25,0,0,0-2.6.35,11.89,11.89,0,0,0-1.79.78c-.5.27-1,.52-1.48.74a3.85,3.85,0,0,1-1.63.32,2.34,2.34,0,0,1-1.37-.4m3-7.28a18.24,18.24,0,0,0-5.92,3.51.25.25,0,0,0-.05.31L58.45,85a4.09,4.09,0,0,0,1.07,1.13,2.75,2.75,0,0,0,1.66.5A4.38,4.38,0,0,0,63,86.24c.49-.23,1-.49,1.51-.77a11.87,11.87,0,0,1,1.71-.74,7.88,7.88,0,0,1,2.44-.32,3.65,3.65,0,0,1,2.8,1.06,5.11,5.11,0,0,1,1,3.51v1a34.34,34.34,0,0,0-8.07,1,17.61,17.61,0,0,0-5.29,2.26,8.17,8.17,0,0,0-2.79,3,7.41,7.41,0,0,0-.81,3.28,9.38,9.38,0,0,0,.63,3.56A6.91,6.91,0,0,0,58,105.71a7.63,7.63,0,0,0,2.84,1.58,12.27,12.27,0,0,0,3.69.53,14.59,14.59,0,0,0,2.75-.24,10.08,10.08,0,0,0,2.35-.75,13.69,13.69,0,0,0,2.13-1.21c.59-.41,1.21-.88,1.85-1.41l.49,1.27A2.86,2.86,0,0,0,75.21,107a4.37,4.37,0,0,0,2,.36h4a.25.25,0,0,0,.25-.25V89a13.37,13.37,0,0,0-.8-4.68,10.72,10.72,0,0,0-2.31-3.71,10.44,10.44,0,0,0-3.67-2.44,12.84,12.84,0,0,0-4.84-.87,20.91,20.91,0,0,0-7,1.14"/></clipPath><linearGradient id="linear-gradient-10" x1="500.87" y1="247.07" x2="501.87" y2="247.07" gradientTransform="matrix(0, -41.24, -41.24, 0, 10258.71, 20765.55)" xlink:href="#linear-gradient"/><clipPath id="clip-path-13"><path class="cls-1" d="M101,88a.25.25,0,0,0,.21-.17,6.76,6.76,0,0,1,.41-1c.16-.32.34-.64.55-1l3.69-6.45a2.64,2.64,0,0,1,.75-.82,1.73,1.73,0,0,1,.94-.24H115l-9.08,13.24a.26.26,0,0,0,0,.28l9.5,15h-7.89a2.15,2.15,0,0,1-1.34-.39,3.26,3.26,0,0,1-.85-1l-5.18-8.9a.24.24,0,0,0-.21-.12h0a.25.25,0,0,0-.21.18,5.89,5.89,0,0,1-.33.86,7.77,7.77,0,0,1-.4.76l-4.25,7.21a6.3,6.3,0,0,1-.88,1,1.74,1.74,0,0,1-1.21.41H85.38l9.5-14.62a.24.24,0,0,0,0-.27L85.78,78.34h7.88a2.83,2.83,0,0,1,1.23.2,1.94,1.94,0,0,1,.68.71l5.18,8.6A.27.27,0,0,0,101,88h0m6.55-10.13a2.14,2.14,0,0,0-1.21.32,3.11,3.11,0,0,0-.91,1l-3.69,6.46c-.21.35-.4.69-.57,1s-.17.36-.25.54L96,79a2.54,2.54,0,0,0-.86-.89,3.19,3.19,0,0,0-1.48-.26H85.31a.26.26,0,0,0-.22.13.25.25,0,0,0,0,.25l9.26,13.9L84.71,107a.25.25,0,0,0,0,.25.26.26,0,0,0,.22.13h7.73a2.23,2.23,0,0,0,1.54-.54,6.26,6.26,0,0,0,1-1.09l4.25-7.22a7.73,7.73,0,0,0,.44-.81c.06-.13.11-.26.17-.4l4.9,8.42a3.78,3.78,0,0,0,1,1.14,2.65,2.65,0,0,0,1.65.5h8.35a.26.26,0,0,0,.22-.13.25.25,0,0,0,0-.25l-9.65-15.26,9.25-13.5a.25.25,0,0,0,0-.26.25.25,0,0,0-.22-.13Z"/></clipPath><linearGradient id="linear-gradient-11" x1="500.87" y1="247.07" x2="501.87" y2="247.07" gradientTransform="matrix(0, -41.24, -41.24, 0, 10290.68, 20765.6)" xlink:href="#linear-gradient"/><clipPath id="clip-path-14"><path class="cls-1" d="M42.84,66.33l-1.08,0a3,3,0,0,0-.83.17,1.87,1.87,0,0,0-.65.44,3.33,3.33,0,0,0-.58.82L29.23,88.39c-.39.71-.76,1.46-1.11,2.24s-.67,1.59-1,2.41c-.32-.8-.65-1.59-1-2.35s-.71-1.51-1.08-2.22L14.56,67.78A3.33,3.33,0,0,0,14,67a1.87,1.87,0,0,0-.65-.44,3,3,0,0,0-.83-.17l-1.08,0H4.2v40.79h8.34V83.66c0-.54,0-1.14,0-1.78s-.09-1.3-.14-2l10.83,21a3.59,3.59,0,0,0,1.36,1.49,3.82,3.82,0,0,0,1.95.5h1.28a3.82,3.82,0,0,0,1.95-.5,3.59,3.59,0,0,0,1.36-1.49L41.91,80c-.07.66-.12,1.3-.15,1.93s0,1.23,0,1.77v23.46h8.34V66.33Z"/></clipPath><linearGradient id="linear-gradient-12" x1="501.05" y1="247.81" x2="502.05" y2="247.81" gradientTransform="matrix(0, -38.86, -38.86, 0, 9657.63, 19578.31)" xlink:href="#linear-gradient-5"/><clipPath id="clip-path-15"><path class="cls-1" d="M64.85,101.23A2.45,2.45,0,0,1,64,99.14a2.75,2.75,0,0,1,.38-1.4,3.26,3.26,0,0,1,1.36-1.15,10.86,10.86,0,0,1,2.66-.84,28.89,28.89,0,0,1,4.28-.44v4a8.71,8.71,0,0,1-2.54,1.9,6.92,6.92,0,0,1-2.94.59,4,4,0,0,1-2.38-.6M62.93,78.66a17.65,17.65,0,0,0-5.84,3.46l1.57,2.71a3.81,3.81,0,0,0,1,1.07,2.48,2.48,0,0,0,1.51.45A4.22,4.22,0,0,0,62.92,86c.48-.22,1-.48,1.49-.76a11.36,11.36,0,0,1,1.75-.75,7.75,7.75,0,0,1,2.52-.34,3.84,3.84,0,0,1,3,1.14,5.31,5.31,0,0,1,1,3.68v1.23a34.61,34.61,0,0,0-8.26,1,17.4,17.4,0,0,0-5.2,2.22,7.87,7.87,0,0,0-2.72,2.94,7.3,7.3,0,0,0-.78,3.18,9.06,9.06,0,0,0,.61,3.46,6.73,6.73,0,0,0,1.75,2.51,7.54,7.54,0,0,0,2.76,1.52,11.7,11.7,0,0,0,3.61.52,14,14,0,0,0,2.7-.24,10.13,10.13,0,0,0,2.3-.73,12.87,12.87,0,0,0,2.09-1.19,26,26,0,0,0,2.1-1.62l.61,1.6a2.59,2.59,0,0,0,1,1.4,4.13,4.13,0,0,0,1.86.33h4V89a13.09,13.09,0,0,0-.78-4.59,10.56,10.56,0,0,0-2.26-3.63,10.16,10.16,0,0,0-3.58-2.38,12.56,12.56,0,0,0-4.75-.85,20.38,20.38,0,0,0-6.87,1.13"/></clipPath><linearGradient id="linear-gradient-13" x1="501.05" y1="247.81" x2="502.05" y2="247.81" gradientTransform="matrix(0, -38.86, -38.86, 0, 9698.95, 19578.29)" xlink:href="#linear-gradient-5"/><clipPath id="clip-path-16"><path class="cls-1" d="M107.54,78.09a1.89,1.89,0,0,0-1.07.28,2.77,2.77,0,0,0-.83.89L102,85.73c-.21.34-.4.67-.56,1a7.93,7.93,0,0,0-.43,1l-5.17-8.6a2.2,2.2,0,0,0-.77-.8,3.11,3.11,0,0,0-1.36-.23H85.31l9.36,14-9.75,15h7.73a2,2,0,0,0,1.37-.47,6,6,0,0,0,.92-1l4.26-7.22a8.41,8.41,0,0,0,.42-.79,7.82,7.82,0,0,0,.34-.89l5.18,8.9a3.3,3.3,0,0,0,.91,1.06,2.34,2.34,0,0,0,1.49.45h8.35l-9.75-15.4,9.36-13.63Z"/></clipPath><linearGradient id="linear-gradient-14" x1="501.05" y1="247.81" x2="502.05" y2="247.81" gradientTransform="matrix(0, -38.86, -38.86, 0, 9730.91, 19578.33)" xlink:href="#linear-gradient-5"/></defs><g class="cls-2"><g class="cls-3"><rect class="cls-4" x="33.55" y="7.63" width="46.36" height="41.3"/></g><g class="cls-5"><rect class="cls-6" x="86.61" y="6.34" width="10.97" height="42.58"/></g><g class="cls-7"><rect class="cls-8" x="103.66" y="18.94" width="26.82" height="29.98"/></g><g class="cls-9"><rect class="cls-10" x="136.28" y="6.34" width="10.97" height="42.58"/></g><g class="cls-11"><rect class="cls-12" x="33.8" y="7.88" width="45.86" height="40.79"/></g><g class="cls-13"><rect class="cls-14" x="86.86" y="6.59" width="10.47" height="42.08"/></g><g class="cls-15"><rect class="cls-16" x="103.91" y="19.19" width="26.32" height="29.48"/></g><g class="cls-17"><rect class="cls-18" x="136.53" y="6.59" width="10.47" height="42.08"/></g></g><g class="cls-19"><g class="cls-20"><rect class="cls-21" x="3.95" y="66.08" width="46.36" height="41.3"/></g><g class="cls-22"><rect class="cls-23" x="55.5" y="77.28" width="25.92" height="30.54"/></g><g class="cls-24"><rect class="cls-25" x="84.66" y="77.84" width="31.49" height="29.54"/></g><g class="cls-26"><rect class="cls-27" x="4.2" y="66.33" width="45.86" height="40.79"/></g><g class="cls-28"><rect class="cls-29" x="55.75" y="77.53" width="25.42" height="30.04"/></g><g class="cls-30"><rect class="cls-31" x="84.92" y="78.09" width="30.97" height="29.03"/></g></g><path class="cls-32" d="M187.05,13.94a3.82,3.82,0,0,1-1,1.1,2.08,2.08,0,0,1-1.29.37,3.25,3.25,0,0,1-1.52-.44c-.53-.3-1.15-.63-1.83-1a15.39,15.39,0,0,0-2.33-1,9.56,9.56,0,0,0-3-.44,6.42,6.42,0,0,0-4.32,1.24,4.19,4.19,0,0,0-1.42,3.34,3.08,3.08,0,0,0,.86,2.23,7.36,7.36,0,0,0,2.24,1.53,23.19,23.19,0,0,0,3.18,1.17c1.19.36,2.41.76,3.65,1.19A33.29,33.29,0,0,1,184,24.79a12,12,0,0,1,3.17,2.26,10.45,10.45,0,0,1,2.25,3.34,11.9,11.9,0,0,1,.85,4.75,15.3,15.3,0,0,1-1.07,5.77,13.39,13.39,0,0,1-3.1,4.69,14.52,14.52,0,0,1-5,3.15,18.84,18.84,0,0,1-6.77,1.14,21.38,21.38,0,0,1-4.23-.43,24.88,24.88,0,0,1-4.17-1.2,24.54,24.54,0,0,1-3.78-1.85A16.1,16.1,0,0,1,159,44l3.05-4.83a2.53,2.53,0,0,1,.95-.88,2.64,2.64,0,0,1,1.31-.34,3.43,3.43,0,0,1,1.85.58c.62.39,1.33.82,2.11,1.28a17,17,0,0,0,2.7,1.29,10.31,10.31,0,0,0,3.61.58A6.88,6.88,0,0,0,179,40.47a4.71,4.71,0,0,0,1.56-3.93,3.71,3.71,0,0,0-.85-2.53,6.65,6.65,0,0,0-2.25-1.62,21,21,0,0,0-3.16-1.13c-1.18-.32-2.39-.69-3.63-1.08A26.64,26.64,0,0,1,167,28.71a11.46,11.46,0,0,1-3.16-2.29,10.72,10.72,0,0,1-2.24-3.54,14.08,14.08,0,0,1-.86-5.24,12.49,12.49,0,0,1,1-4.89,12.66,12.66,0,0,1,3-4.24,14.48,14.48,0,0,1,4.8-3A17.75,17.75,0,0,1,176,4.42a23.87,23.87,0,0,1,4,.32,21.32,21.32,0,0,1,3.68.94,20.55,20.55,0,0,1,3.25,1.5,14.89,14.89,0,0,1,2.7,2Z"/><path class="cls-32" d="M206.22,9.06a5.07,5.07,0,0,1-.45,2.12,5.85,5.85,0,0,1-1.25,1.74,6.05,6.05,0,0,1-1.85,1.19,5.69,5.69,0,0,1-2.25.45,5.3,5.3,0,0,1-2.17-.45,6,6,0,0,1-1.78-1.19,5.43,5.43,0,0,1-1.22-1.74,5.07,5.07,0,0,1-.45-2.12,5.27,5.27,0,0,1,.45-2.17,5.55,5.55,0,0,1,1.22-1.77,5.62,5.62,0,0,1,1.78-1.19,5.46,5.46,0,0,1,2.17-.43,5.85,5.85,0,0,1,2.25.43,5.7,5.7,0,0,1,1.85,1.19,6,6,0,0,1,1.25,1.77A5.27,5.27,0,0,1,206.22,9.06Zm-1.09,8.67V49.4h-9.47V17.73Z"/><path class="cls-32" d="M236.4,21.52a4.71,4.71,0,0,1-.37,1.86,6.93,6.93,0,0,1-.85,1.53L222,42.38h14.14v7h-25V45.55a4.5,4.5,0,0,1,.32-1.45,6.56,6.56,0,0,1,.9-1.66l13.35-17.68H211.91v-7H236.4Z"/><path class="cls-32" d="M255.45,17.24a16.34,16.34,0,0,1,5.76,1,12.51,12.51,0,0,1,4.49,2.84,12.88,12.88,0,0,1,2.93,4.57,16.57,16.57,0,0,1,1.06,6.12,13.64,13.64,0,0,1-.09,1.74,2.93,2.93,0,0,1-.34,1.07,1.27,1.27,0,0,1-.66.55,3.07,3.07,0,0,1-1.05.15H249.29c.3,2.65,1.11,4.57,2.41,5.76a7.18,7.18,0,0,0,5,1.79,9.17,9.17,0,0,0,2.84-.4,14.54,14.54,0,0,0,2.12-.89l1.71-.88a3.48,3.48,0,0,1,1.63-.4,2,2,0,0,1,1.71.82l2.75,3.39a13.88,13.88,0,0,1-3.16,2.74,16.71,16.71,0,0,1-3.48,1.65,19.16,19.16,0,0,1-3.57.82,27.38,27.38,0,0,1-3.41.23,17.79,17.79,0,0,1-6.24-1.08,14.42,14.42,0,0,1-5.1-3.22,15.12,15.12,0,0,1-3.45-5.32,19.76,19.76,0,0,1-1.27-7.39,16.82,16.82,0,0,1,1.08-6,14.68,14.68,0,0,1,8-8.36A16.17,16.17,0,0,1,255.45,17.24Zm.19,6.54a5.71,5.71,0,0,0-4.25,1.54,8,8,0,0,0-2,4.45H261.2a8.46,8.46,0,0,0-.29-2.2,5.35,5.35,0,0,0-1-1.91,4.73,4.73,0,0,0-1.73-1.36A5.81,5.81,0,0,0,255.64,23.78Z"/><path class="cls-32" d="M273.53,44a4.59,4.59,0,0,1,.37-1.82A4.36,4.36,0,0,1,275,40.74a5.5,5.5,0,0,1,1.62-1,5.76,5.76,0,0,1,2.09-.36,5.51,5.51,0,0,1,2.39.47,4.76,4.76,0,0,1,1.68,1.28,5.37,5.37,0,0,1,1,1.86,7.74,7.74,0,0,1,.32,2.22,11.77,11.77,0,0,1-.49,3.25,16.22,16.22,0,0,1-1.45,3.47,20.46,20.46,0,0,1-2.4,3.42,19.17,19.17,0,0,1-3.29,3L274.76,57a3.2,3.2,0,0,1-.51-.63,1.42,1.42,0,0,1-.17-.72,1.29,1.29,0,0,1,.22-.65,2.43,2.43,0,0,1,.52-.63c.24-.24.53-.54.85-.89a13.23,13.23,0,0,0,1-1.16,10.19,10.19,0,0,0,.9-1.4,7.07,7.07,0,0,0,.63-1.62,5.14,5.14,0,0,1-1.93-.52,4.48,4.48,0,0,1-1.45-1.13,5.21,5.21,0,0,1-.93-1.6A5.7,5.7,0,0,1,273.53,44Z"/><path class="cls-32" d="M139.19,93.63V108.5H128.86V64h15.7a26,26,0,0,1,8.08,1.12,15.54,15.54,0,0,1,5.56,3.07,12,12,0,0,1,3.22,4.61,15.66,15.66,0,0,1,1,5.74,16.93,16.93,0,0,1-1.07,6.11,12.17,12.17,0,0,1-3.27,4.76,15.19,15.19,0,0,1-5.57,3.1,25.34,25.34,0,0,1-8,1.12Zm0-7.79h5.37q4,0,5.8-1.92a7.67,7.67,0,0,0,1.78-5.38,8.19,8.19,0,0,0-.46-2.78,5.74,5.74,0,0,0-1.39-2.15,6.22,6.22,0,0,0-2.35-1.39,10.35,10.35,0,0,0-3.38-.49h-5.37Z"/><path class="cls-32" d="M181,76.34a18.32,18.32,0,0,1,6.56,1.13,14.45,14.45,0,0,1,5.09,3.24,14.73,14.73,0,0,1,3.3,5.11,18.6,18.6,0,0,1,1.17,6.77A18.93,18.93,0,0,1,196,99.42a14.94,14.94,0,0,1-3.3,5.16,14.49,14.49,0,0,1-5.09,3.26A17.89,17.89,0,0,1,181,109a18.18,18.18,0,0,1-6.62-1.15A14.27,14.27,0,0,1,166,99.42a18.93,18.93,0,0,1-1.17-6.83A18.6,18.6,0,0,1,166,85.82a14.51,14.51,0,0,1,3.33-5.11,14.8,14.8,0,0,1,5.13-3.24A18.62,18.62,0,0,1,181,76.34ZM181,102a5.39,5.39,0,0,0,4.81-2.31c1-1.54,1.54-3.87,1.54-7s-.52-5.47-1.54-7A5.39,5.39,0,0,0,181,83.37a5.52,5.52,0,0,0-4.92,2.29c-1,1.52-1.56,3.86-1.56,7s.52,5.47,1.56,7A5.51,5.51,0,0,0,181,102Z"/><path class="cls-32" d="M198.68,76.83h7.57a3.18,3.18,0,0,1,1.74.46,1.8,1.8,0,0,1,.89,1.19l3.17,14.2c.25,1.08.47,2.13.68,3.15s.38,2,.55,3c.28-1,.58-2,.9-3s.62-2.06.93-3.16l4-14.23a2.06,2.06,0,0,1,.88-1.18,2.88,2.88,0,0,1,1.62-.47h4.22a3.1,3.1,0,0,1,1.72.47,2,2,0,0,1,.9,1.18l3.79,14.23q.43,1.62.87,3.15c.3,1,.58,2,.84,3.08.16-1,.36-2,.6-3s.48-2.07.74-3.19l3.36-14.2a1.87,1.87,0,0,1,.87-1.19,3,3,0,0,1,1.64-.46h7.21L238.5,108.5h-7.69a1.51,1.51,0,0,1-1-.37,2.38,2.38,0,0,1-.67-1.22l-4.52-15.79c-.21-.71-.4-1.41-.58-2.1s-.35-1.39-.49-2.08c-.15.71-.3,1.42-.48,2.12s-.37,1.41-.59,2.12l-4.58,15.73a2,2,0,0,1-2,1.59h-7.33Z"/><path class="cls-32" d="M265.56,76.34a16.34,16.34,0,0,1,5.76,1,12.6,12.6,0,0,1,4.49,2.84,12.88,12.88,0,0,1,2.93,4.57,16.78,16.78,0,0,1,1.05,6.12,13.64,13.64,0,0,1-.09,1.74,2.64,2.64,0,0,1-.34,1.07,1.29,1.29,0,0,1-.65.55,3.18,3.18,0,0,1-1.06.15H259.39q.47,4,2.41,5.76a7.2,7.2,0,0,0,5,1.78,9.15,9.15,0,0,0,2.84-.39,14.69,14.69,0,0,0,2.13-.89l1.71-.88a3.48,3.48,0,0,1,1.63-.4,2,2,0,0,1,1.71.82l2.75,3.39a14.36,14.36,0,0,1-3.16,2.74,16.71,16.71,0,0,1-3.48,1.65,19.45,19.45,0,0,1-3.58.82,27.22,27.22,0,0,1-3.4.23,17.89,17.89,0,0,1-6.25-1.08,14.48,14.48,0,0,1-5.1-3.23,15.26,15.26,0,0,1-3.45-5.31A20,20,0,0,1,249.92,92,16.61,16.61,0,0,1,251,86a14.91,14.91,0,0,1,3.11-5A15.11,15.11,0,0,1,259,77.59,16.3,16.3,0,0,1,265.56,76.34Zm.18,6.54a5.69,5.69,0,0,0-4.24,1.54,8.06,8.06,0,0,0-2,4.44H271.3a8.57,8.57,0,0,0-.29-2.2,5.23,5.23,0,0,0-.95-1.9,4.69,4.69,0,0,0-1.72-1.36A5.85,5.85,0,0,0,265.74,82.88Z"/><path class="cls-32" d="M285.23,108.5V76.83h5.62A4.84,4.84,0,0,1,292,77a2.12,2.12,0,0,1,.8.38,1.84,1.84,0,0,1,.49.69,7.51,7.51,0,0,1,.29,1l.51,3A15.62,15.62,0,0,1,298,77.78a8,8,0,0,1,4.74-1.56,5.48,5.48,0,0,1,3.48,1l-1.22,7a1.36,1.36,0,0,1-.49.9,1.62,1.62,0,0,1-1,.26,5.85,5.85,0,0,1-1.22-.14,9.71,9.71,0,0,0-1.77-.13c-2.49,0-4.44,1.32-5.87,4V108.5Z"/><path class="cls-32" d="M304.35,103.71a5,5,0,0,1,.41-2,5.11,5.11,0,0,1,1.13-1.65,5.28,5.28,0,0,1,1.69-1.11,5.38,5.38,0,0,1,2.14-.42,5.3,5.3,0,0,1,2.11.42,5.48,5.48,0,0,1,1.71,1.11,5.13,5.13,0,0,1,1.56,3.7,5.09,5.09,0,0,1-.42,2.06,4.92,4.92,0,0,1-1.14,1.66,5.29,5.29,0,0,1-1.71,1.1,5.47,5.47,0,0,1-2.11.4,5.55,5.55,0,0,1-2.14-.4,5.09,5.09,0,0,1-1.69-1.1,5.15,5.15,0,0,1-1.54-3.72Z"/></svg>