<svg xmlns="http://www.w3.org/2000/svg" xmlns:xlink="http://www.w3.org/1999/xlink" viewBox="0 0 115.69 42.61"><defs><style>.cls-1,.cls-13{fill:none;}.cls-2{isolation:isolate;}.cls-3{clip-path:url(#clip-path);}.cls-4{clip-path:url(#clip-path-2);}.cls-5{fill:url(#linear-gradient);}.cls-6{clip-path:url(#clip-path-3);}.cls-7{fill:url(#linear-gradient-2);}.cls-8{clip-path:url(#clip-path-4);}.cls-9{fill:url(#linear-gradient-3);}.cls-10{clip-path:url(#clip-path-5);}.cls-11{fill:url(#linear-gradient-4);}.cls-12{mix-blend-mode:soft-light;}.cls-13{stroke:#010101;stroke-linejoin:round;stroke-width:0.5px;}.cls-14{clip-path:url(#clip-path-8);}.cls-15{fill:url(#linear-gradient-5);}.cls-16{clip-path:url(#clip-path-9);}.cls-17{fill:url(#linear-gradient-6);}.cls-18{clip-path:url(#clip-path-10);}.cls-19{fill:url(#linear-gradient-7);}.cls-20{clip-path:url(#clip-path-11);}.cls-21{fill:url(#linear-gradient-8);}</style><clipPath id="clip-path" transform="translate(-3.36 -6.31)"><rect class="cls-1" width="125.2" height="58.89"/></clipPath><clipPath id="clip-path-2" transform="translate(-3.36 -6.31)"><path class="cls-1" d="M27.13,34.84a.24.24,0,0,0,.23-.16q.5-1.26,1-2.4c.34-.77.71-1.51,1.1-2.22L39.92,9.45a3.11,3.11,0,0,1,.53-.76A1.63,1.63,0,0,1,41,8.31a2.44,2.44,0,0,1,.75-.15c.31,0,.66,0,1.07,0h7v40.3H42V25.21c0-.54,0-1.12,0-1.75s.08-1.27.15-1.92a.23.23,0,0,0-.17-.26.25.25,0,0,0-.3.12l-10.83,21a3.43,3.43,0,0,1-1.27,1.39,3.52,3.52,0,0,1-1.82.47H26.49a3.52,3.52,0,0,1-1.82-.47,3.37,3.37,0,0,1-1.27-1.39l-10.83-21a.24.24,0,0,0-.29-.12.24.24,0,0,0-.18.26c.05.67.1,1.33.14,2s0,1.23,0,1.76V48.43H4.45V8.13h7c.41,0,.76,0,1.06,0a2.44,2.44,0,0,1,.76.15,1.73,1.73,0,0,1,.57.38,3.41,3.41,0,0,1,.53.76L24.83,30.14c.37.71.74,1.44,1.08,2.2s.68,1.56,1,2.34a.24.24,0,0,0,.23.16ZM42.84,7.63c-.42,0-.78,0-1.1,0a3.13,3.13,0,0,0-.9.18,2.22,2.22,0,0,0-.74.49,3.84,3.84,0,0,0-.62.89L29,29.82c-.4.72-.77,1.48-1.11,2.26-.26.58-.52,1.2-.77,1.83-.25-.59-.5-1.19-.77-1.77-.34-.77-.71-1.52-1.08-2.23L14.78,9.22a3.71,3.71,0,0,0-.62-.89,2.17,2.17,0,0,0-.75-.49,3,3,0,0,0-.9-.18c-.31,0-.67,0-1.09,0H4.2A.25.25,0,0,0,4,7.88V48.67a.26.26,0,0,0,.25.26h8.34a.26.26,0,0,0,.25-.26V25.21c0-.54,0-1.15-.06-1.79,0-.25,0-.5,0-.75L23,42.6a3.87,3.87,0,0,0,1.45,1.59,4.12,4.12,0,0,0,2.08.53h1.28a4.12,4.12,0,0,0,2.08-.53A3.87,3.87,0,0,0,31.3,42.6L41.55,22.77c0,.22,0,.45,0,.67,0,.63,0,1.23,0,1.77V48.67a.26.26,0,0,0,.25.26h8.34a.26.26,0,0,0,.25-.26V7.88a.25.25,0,0,0-.25-.25Z"/></clipPath><linearGradient id="linear-gradient" y1="58.89" x2="1" y2="58.89" gradientTransform="matrix(0, -42.08, -42.08, 0, 2502.24, 42.36)" gradientUnits="userSpaceOnUse"><stop offset="0" stop-color="#77787b"/><stop offset="0.2" stop-color="#a7a9ac"/><stop offset="0.4" stop-color="#e6e7e8"/><stop offset="0.6" stop-color="#a7a9ac"/><stop offset="0.8" stop-color="#e6e7e8"/><stop offset="1" stop-color="#77787b"/></linearGradient><clipPath id="clip-path-3" transform="translate(-3.36 -6.31)"><path class="cls-1" d="M58.4,19.89h8.18V48.43H58.4Zm-.25-.5a.25.25,0,0,0-.25.25v29a.26.26,0,0,0,.25.26h8.68a.26.26,0,0,0,.25-.26v-29a.25.25,0,0,0-.25-.25Zm2.37-3.3a5.53,5.53,0,0,1-1.56-1,5,5,0,0,1-1.07-1.52,4.56,4.56,0,0,1-.38-1.84,4.76,4.76,0,0,1,.38-1.89,5,5,0,0,1,2.63-2.59,4.94,4.94,0,0,1,1.89-.37,5.34,5.34,0,0,1,2,.37,5.17,5.17,0,0,1,1.62,1A5.07,5.07,0,0,1,67.08,9.8a4.45,4.45,0,0,1,.4,1.89,4.26,4.26,0,0,1-.4,1.84A4.94,4.94,0,0,1,66,15.05a5.55,5.55,0,0,1-1.62,1,5.13,5.13,0,0,1-2,.38,4.67,4.67,0,0,1-1.9-.38m-.2-9.34A5.66,5.66,0,0,0,58.61,7.9a5.38,5.38,0,0,0-1.17,1.7A5,5,0,0,0,57,11.69a4.93,4.93,0,0,0,.43,2.05,5.26,5.26,0,0,0,1.17,1.67,5.81,5.81,0,0,0,1.71,1.14,5.21,5.21,0,0,0,2.09.43,5.5,5.5,0,0,0,2.15-.43,5.73,5.73,0,0,0,1.77-1.14,5.38,5.38,0,0,0,1.21-1.67A4.94,4.94,0,0,0,68,11.69a5.05,5.05,0,0,0-.44-2.09,5.43,5.43,0,0,0-1.21-1.71,5.55,5.55,0,0,0-1.77-1.14,5.74,5.74,0,0,0-2.14-.41,5.5,5.5,0,0,0-2.1.41"/></clipPath><linearGradient id="linear-gradient-2" y1="58.89" x2="1" y2="58.89" gradientTransform="matrix(0, -42.08, -42.08, 0, 2537.49, 42.36)" xlink:href="#linear-gradient"/><clipPath id="clip-path-4" transform="translate(-3.36 -6.31)"><path class="cls-1" d="M82.49,23a19.17,19.17,0,0,1,1.71-1.44,9.81,9.81,0,0,1,1.87-1.11,11,11,0,0,1,2.17-.71,11.77,11.77,0,0,1,2.53-.26,10.06,10.06,0,0,1,4.12.8,8.6,8.6,0,0,1,3,2.24,9.61,9.61,0,0,1,1.86,3.41,14.29,14.29,0,0,1,.63,4.33V48.43H92.2V30.22a5.3,5.3,0,0,0-1-3.47,3.76,3.76,0,0,0-3.07-1.28,6.43,6.43,0,0,0-2.79.62,11.08,11.08,0,0,0-2.48,1.68.24.24,0,0,0-.08.19V48.43H74.56V19.89h5.12a1.79,1.79,0,0,1,1.89,1.28l.51,1.68a.26.26,0,0,0,.17.17h.07a.28.28,0,0,0,.17-.07m5.64-3.75a11.1,11.1,0,0,0-2.26.75,10,10,0,0,0-2,1.16c-.49.37-1,.78-1.46,1.2L82.05,21a2.29,2.29,0,0,0-2.37-1.62H74.31a.25.25,0,0,0-.25.25v29a.26.26,0,0,0,.25.26H83a.26.26,0,0,0,.25-.26V28.07a10.59,10.59,0,0,1,2.28-1.53A5.89,5.89,0,0,1,88.09,26a3.25,3.25,0,0,1,2.69,1.09,4.9,4.9,0,0,1,.92,3.16V48.67a.26.26,0,0,0,.25.26h8.68a.26.26,0,0,0,.25-.26V30.22a14.66,14.66,0,0,0-.66-4.48,10,10,0,0,0-2-3.59,9,9,0,0,0-3.18-2.36,10.5,10.5,0,0,0-4.32-.85,12.23,12.23,0,0,0-2.64.27"/></clipPath><linearGradient id="linear-gradient-3" y1="58.89" x2="1" y2="58.89" gradientTransform="matrix(0, -42.08, -42.08, 0, 2562.58, 42.36)" xlink:href="#linear-gradient"/><clipPath id="clip-path-5" transform="translate(-3.36 -6.31)"><path class="cls-1" d="M108.08,19.89h8.18V48.43h-8.18Zm-.25-.5a.25.25,0,0,0-.25.25v29a.26.26,0,0,0,.25.26h8.68a.26.26,0,0,0,.25-.26v-29a.25.25,0,0,0-.25-.25Zm2.36-3.3a5.53,5.53,0,0,1-1.56-1,4.93,4.93,0,0,1-1.07-1.52,4.56,4.56,0,0,1-.38-1.84,4.76,4.76,0,0,1,.38-1.89,5,5,0,0,1,2.63-2.59,5,5,0,0,1,1.89-.37,5.43,5.43,0,0,1,2,.37,5.13,5.13,0,0,1,1.61,1,5.07,5.07,0,0,1,1.09,1.55,4.45,4.45,0,0,1,.4,1.89,4.4,4.4,0,0,1-.39,1.84,5.14,5.14,0,0,1-1.1,1.52,5.42,5.42,0,0,1-1.62,1,5,5,0,0,1-2,.39,4.72,4.72,0,0,1-1.9-.39M110,6.75a5.58,5.58,0,0,0-1.72,1.15,5.27,5.27,0,0,0-1.17,1.7,5,5,0,0,0-.43,2.09,4.93,4.93,0,0,0,.43,2.05,5.26,5.26,0,0,0,1.17,1.67A6,6,0,0,0,110,16.55a5.24,5.24,0,0,0,2.09.43,5.59,5.59,0,0,0,2.16-.43A6,6,0,0,0,116,15.41a5.51,5.51,0,0,0,1.2-1.67,4.94,4.94,0,0,0,.44-2.05,5.05,5.05,0,0,0-.44-2.09A5.56,5.56,0,0,0,116,7.89a5.68,5.68,0,0,0-3.91-1.55,5.46,5.46,0,0,0-2.1.41"/></clipPath><linearGradient id="linear-gradient-4" y1="58.89" x2="1" y2="58.89" gradientTransform="matrix(0, -42.08, -42.08, 0, 2587.16, 42.36)" xlink:href="#linear-gradient"/><clipPath id="clip-path-8" transform="translate(-3.36 -6.31)"><path class="cls-1" d="M42.84,7.88q-.62,0-1.08,0a2.66,2.66,0,0,0-.83.17,1.72,1.72,0,0,0-.65.43,3.33,3.33,0,0,0-.58.82L29.23,29.94c-.39.71-.76,1.46-1.11,2.24s-.67,1.59-1,2.41c-.32-.8-.65-1.59-1-2.35s-.71-1.5-1.08-2.21L14.56,9.33A3.33,3.33,0,0,0,14,8.51a1.72,1.72,0,0,0-.65-.43,2.66,2.66,0,0,0-.83-.17q-.46,0-1.08,0H4.2V48.67h8.34V25.21c0-.54,0-1.13,0-1.78s-.09-1.3-.14-2l10.83,21A3.62,3.62,0,0,0,24.54,44a3.73,3.73,0,0,0,1.95.5h1.28a3.73,3.73,0,0,0,1.95-.5,3.62,3.62,0,0,0,1.36-1.48l10.83-21c-.07.66-.12,1.3-.15,1.94s0,1.22,0,1.76V48.67h8.34V7.88Z"/></clipPath><linearGradient id="linear-gradient-5" y1="58.89" x2="1" y2="58.89" gradientTransform="matrix(0, -39.65, -39.65, 0, 2359.11, 41.35)" gradientUnits="userSpaceOnUse"><stop offset="0" stop-color="#77787b"/><stop offset="0.2" stop-color="#e6e7e8"/><stop offset="0.4" stop-color="#a7a9ac"/><stop offset="0.6" stop-color="#e6e7e8"/><stop offset="0.8" stop-color="#a7a9ac"/><stop offset="1" stop-color="#77787b"/></linearGradient><clipPath id="clip-path-9" transform="translate(-3.36 -6.31)"><path class="cls-1" d="M58.15,48.67h8.68v-29H58.15ZM60.42,7a5.49,5.49,0,0,0-1.64,1.1A5.11,5.11,0,0,0,57.66,9.7a4.91,4.91,0,0,0-.4,2,4.68,4.68,0,0,0,.4,1.94,5.14,5.14,0,0,0,1.12,1.6,5.66,5.66,0,0,0,1.64,1.09,4.92,4.92,0,0,0,2,.41,5.3,5.3,0,0,0,2.06-.41,5.52,5.52,0,0,0,1.69-1.09,5.06,5.06,0,0,0,1.15-1.6,4.54,4.54,0,0,0,.42-1.94,4.77,4.77,0,0,0-.42-2,5,5,0,0,0-1.15-1.62A5.36,5.36,0,0,0,64.47,7a5.47,5.47,0,0,0-2.06-.39,5.08,5.08,0,0,0-2,.39"/></clipPath><linearGradient id="linear-gradient-6" y1="58.89" y2="58.89" gradientTransform="matrix(0, -39.65, -39.65, 0, 2394.47, 41.35)" xlink:href="#linear-gradient-5"/><clipPath id="clip-path-10" transform="translate(-3.36 -6.31)"><path class="cls-1" d="M88.18,19.46a10.81,10.81,0,0,0-2.21.73,9.77,9.77,0,0,0-1.92,1.13,21.24,21.24,0,0,0-1.73,1.46l-.51-1.68a2,2,0,0,0-2.13-1.46H74.31v29H83V28a10.35,10.35,0,0,1,2.42-1.64,6.08,6.08,0,0,1,2.68-.6A3.51,3.51,0,0,1,91,26.9a5.11,5.11,0,0,1,1,3.32V48.67h8.68V30.22a14.56,14.56,0,0,0-.64-4.41,10,10,0,0,0-1.91-3.5A8.73,8.73,0,0,0,95,20a10.22,10.22,0,0,0-4.22-.83,11.77,11.77,0,0,0-2.59.27"/></clipPath><linearGradient id="linear-gradient-7" y1="58.89" y2="58.89" gradientTransform="matrix(0, -39.65, -39.65, 0, 2419.45, 41.35)" xlink:href="#linear-gradient-5"/><clipPath id="clip-path-11" transform="translate(-3.36 -6.31)"><path class="cls-1" d="M107.83,48.67h8.68v-29h-8.68ZM110.09,7a5.33,5.33,0,0,0-1.63,1.1,5,5,0,0,0-1.53,3.61,4.69,4.69,0,0,0,.41,1.94,5,5,0,0,0,1.12,1.6,5.48,5.48,0,0,0,1.63,1.09,4.92,4.92,0,0,0,2,.41,5.26,5.26,0,0,0,2.06-.41,5.52,5.52,0,0,0,1.69-1.09,5.06,5.06,0,0,0,1.15-1.6,4.54,4.54,0,0,0,.42-1.94,4.77,4.77,0,0,0-.42-2,5,5,0,0,0-1.15-1.62A5.36,5.36,0,0,0,114.14,7a5.43,5.43,0,0,0-2.06-.39,5.08,5.08,0,0,0-2,.39"/></clipPath><linearGradient id="linear-gradient-8" y1="58.89" y2="58.89" gradientTransform="matrix(0, -39.65, -39.65, 0, 2444.14, 41.35)" xlink:href="#linear-gradient-5"/></defs><g class="cls-2"><g id="Layer_1" data-name="Layer 1"><g class="cls-3"><g class="cls-4"><rect class="cls-5" x="0.59" y="1.32" width="46.36" height="41.3"/></g><g class="cls-6"><rect class="cls-7" x="53.65" y="0.03" width="10.97" height="42.58"/></g><g class="cls-8"><rect class="cls-9" x="70.7" y="12.63" width="26.82" height="29.98"/></g><g class="cls-10"><rect class="cls-11" x="103.32" y="0.03" width="10.97" height="42.58"/></g><g class="cls-3"><g class="cls-12"><g class="cls-3"><path class="cls-13" d="M24.47,30,14,9.31a3.71,3.71,0,0,0-.57-.83,2,2,0,0,0-.66-.43,2.66,2.66,0,0,0-.83-.17q-.46,0-1.08,0H3.61v40.8H12V25.18c0-.54,0-1.13,0-1.77s-.1-1.3-.17-1.95l10.86,21A3.56,3.56,0,0,0,24,43.94a3.73,3.73,0,0,0,1.95.51h1.29a3.72,3.72,0,0,0,1.94-.51,3.56,3.56,0,0,0,1.36-1.48l10.81-21c-.11,1.32-.17,2.55-.17,3.69V48.65h8.34V7.85H42.25q-.61,0-1.08,0a2.54,2.54,0,0,0-.82.17,1.8,1.8,0,0,0-.66.43,3.41,3.41,0,0,0-.58.83L28.64,29.92c-.37.72-.74,1.48-1.09,2.25s-.69,1.57-1,2.39c-.32-.8-.65-1.58-1-2.35S24.84,30.71,24.47,30Z" transform="translate(-3.36 -6.31)"/><path class="cls-13" d="M67.14,9.67A5.28,5.28,0,0,0,64.3,7a5.29,5.29,0,0,0-2.06-.4,4.91,4.91,0,0,0-2,.4,5.13,5.13,0,0,0-1.63,1.09A5.06,5.06,0,0,0,57.5,9.67a4.76,4.76,0,0,0-.41,2,4.61,4.61,0,0,0,.41,1.95,5,5,0,0,0,1.12,1.59,5.48,5.48,0,0,0,1.63,1.09,4.92,4.92,0,0,0,2,.41,5.3,5.3,0,0,0,2.06-.41A5.52,5.52,0,0,0,66,15.2a5.14,5.14,0,0,0,1.15-1.59,4.62,4.62,0,0,0,.42-1.95A4.77,4.77,0,0,0,67.14,9.67Zm-9.27,39h8.68v-29H57.87Z" transform="translate(-3.36 -6.31)"/><path class="cls-13" d="M83.63,48.65V28A10.6,10.6,0,0,1,86,26.3a6.06,6.06,0,0,1,2.69-.61,3.49,3.49,0,0,1,2.88,1.19,5,5,0,0,1,1,3.32V48.65h8.68V30.2a14.46,14.46,0,0,0-.64-4.41,9.87,9.87,0,0,0-1.91-3.5A8.76,8.76,0,0,0,95.63,20a10.17,10.17,0,0,0-4.21-.83,11.58,11.58,0,0,0-4.81,1,9.9,9.9,0,0,0-1.91,1.13A21.69,21.69,0,0,0,83,22.75l-.5-1.68A1.94,1.94,0,0,0,81.69,20a2.36,2.36,0,0,0-1.36-.37H75v29Z" transform="translate(-3.36 -6.31)"/><path class="cls-13" d="M118.38,9.67A5.28,5.28,0,0,0,115.54,7a5.29,5.29,0,0,0-2.06-.4,4.91,4.91,0,0,0-2,.4,5.28,5.28,0,0,0-1.64,1.09,5.22,5.22,0,0,0-1.12,1.62,4.91,4.91,0,0,0-.4,2,4.76,4.76,0,0,0,.4,1.95,5.21,5.21,0,0,0,1.12,1.59,5.66,5.66,0,0,0,1.64,1.09,4.92,4.92,0,0,0,2,.41,5.3,5.3,0,0,0,2.06-.41,5.52,5.52,0,0,0,1.69-1.09,5.14,5.14,0,0,0,1.15-1.59,4.62,4.62,0,0,0,.42-1.95A4.77,4.77,0,0,0,118.38,9.67Zm-9.27,39h8.68v-29h-8.68Z" transform="translate(-3.36 -6.31)"/></g></g></g><g class="cls-14"><rect class="cls-15" x="0.84" y="1.57" width="45.86" height="40.79"/></g><g class="cls-16"><rect class="cls-17" x="53.9" y="0.28" width="10.47" height="42.08"/></g><g class="cls-18"><rect class="cls-19" x="70.95" y="12.88" width="26.32" height="29.48"/></g><g class="cls-20"><rect class="cls-21" x="103.57" y="0.28" width="10.47" height="42.08"/></g></g></g></g></svg>